<svg width="177" height="141" viewBox="0 0 177 141" fill="none" xmlns="http://www.w3.org/2000/svg">
<path opacity="0.05" d="M143.775 72.051C163.624 72.051 177 86.0485 177 106.788C177 125.452 161.626 141 140.803 141C117.996 141 101.143 122.337 101.143 93.8291C101.143 29.0332 147.744 3.11482 177 0V28.5076C157.163 32.1352 134.861 52.3495 133.863 74.6531C134.861 74.1404 138.819 72.051 143.775 72.051ZM42.6444 72.051C62.4684 72.051 75.8571 86.0485 75.8571 106.788C75.8571 125.452 60.4834 141 39.6606 141C16.8529 141 0 122.337 0 93.8291C0 29.0332 46.6016 3.11482 75.8571 0V28.5076C56.0205 32.1352 33.7185 52.3495 32.7197 74.6531C33.7185 74.1404 37.6757 72.051 42.6444 72.051Z" fill="#1A1A1A"/>
</svg>
