<svg width="1489" height="329" viewBox="0 0 1489 329" fill="none" xmlns="http://www.w3.org/2000/svg">
<g opacity="0.1">
<path d="M747.993 822.879C1156.38 822.879 1487.44 640.269 1487.44 415.007C1487.44 189.746 1156.38 7.1355 747.993 7.1355C339.609 7.1355 8.54761 189.746 8.54761 415.007C8.54761 640.269 339.609 822.879 747.993 822.879Z" fill="#0077B6"/>
<path d="M863.833 228.675C857.034 231.605 849.526 233.073 845.894 237.884C843.28 241.341 849.685 248.463 846.447 250.501C842.82 252.785 824.437 250.591 818.488 252.077C811.809 253.746 795.428 263.16 810.679 265.087C805.049 268.337 798.817 273.976 808.314 276.881C821.571 280.937 833.394 272.93 838.328 267.413C841.154 264.252 850.199 252.937 860.4 258.461C867.186 262.138 856.609 266.033 853.003 268.227C845.181 272.989 846.89 274.707 856.609 277.963C850.124 279.251 832.619 282.857 846.102 286.659C851.59 288.206 869.344 286.994 875.585 286.659C884.794 286.163 897.325 284.394 902.149 279.471C906.813 274.711 902.862 269.791 892.452 269.759C891.673 261.975 887.677 261.567 880.076 255.4C874.677 251.019 879.337 250.046 879.558 245.463C879.859 239.308 871.558 240.498 868.666 236.806C866.216 233.672 874.659 226.513 863.833 228.675Z" fill="white"/>
<path d="M1206.56 130.094C1198.42 129.151 1200.18 132.171 1195.51 133.896C1192.08 135.164 1187.18 135.005 1182.94 136.459C1170.42 140.752 1173.54 151.265 1174.13 158.382C1174.67 164.945 1174.08 171.735 1184.95 175.473C1194.08 178.613 1211.26 181.347 1221.13 178.735C1218.97 174.205 1206.05 171.371 1201.24 167.193C1196.29 162.893 1184.48 153.559 1188.12 148.091C1190.91 143.901 1227.53 136.31 1206.56 130.094Z" fill="white"/>
<path d="M880.162 223.056C877.212 225.062 879.821 229.985 882.638 231.685C886.093 233.772 889.344 230.195 890.749 228.25C892.352 226.027 893.925 221.448 888.273 220.818C885.486 220.507 881.039 221.673 880.162 223.056Z" fill="white"/>
<path d="M597.717 62.3853C594.408 57.401 583.29 51.1852 574.29 49.9001C559.987 47.8551 547.336 54.5985 534.397 54.491C515.776 54.3371 490.78 49.6142 482.603 62.7664C478.205 58.4638 463.592 61.557 457.536 63.0254C437.807 67.8069 439.304 74.565 447.393 83.9472C436.549 87.6464 421.6 83.2631 409.87 83.5148C399.762 83.7322 389.1 85.9849 380.432 88.9413C372.135 91.7706 370.638 92.9776 378.735 96.2467C394.987 102.807 424.085 101.69 442.981 103.559C451.915 104.441 470.227 105.174 457.284 97.7054C451.623 94.4363 433.258 97.1923 430.441 94.5047C424.886 89.2052 446.848 91.1232 450.343 91.6094C463.175 93.3954 464.544 93.6642 472.508 88.653C479.188 84.4506 481.212 85.5158 490.151 83.1947C497.956 81.1668 507.457 75.7671 513.844 82.3249C509.326 84.8952 502.859 88.6139 504.348 92.7064C506.27 97.9814 516.05 97.1874 525.011 97.6223C541.201 98.4115 544.984 100.041 543.651 109.538C542.964 114.442 541.272 112.712 536.236 117.369C532.807 120.543 533.507 125.72 537.733 128.615C542.592 131.943 548.554 130.966 549.586 135.51C550.118 137.849 546.051 143.827 542.738 145.327C536.462 148.169 528.032 147.131 521.463 151.47C514.327 156.185 510.155 165.541 518.039 170.545C509.083 177.386 506.456 201.731 531.744 197.873C535.013 205.713 548.749 213.925 563.264 208.579C585.771 200.289 586.559 178.368 616.388 174.078C626.615 172.607 633.122 175.038 642.119 171.282C651.164 167.508 655.726 160.603 665.679 157.59C682.219 152.579 703.308 159.379 719.919 154.629C738.749 149.246 735.856 143.717 736.219 133.978C741.079 133.592 753.933 131.799 756.879 129.011C758.163 127.794 756.29 125.937 757.007 125.192C758.367 123.787 759.12 123.633 761.206 122.053C767.403 117.344 774.916 115.505 766.46 108.93C780.01 105.763 775.602 103.64 773.108 97.2582C771.478 93.0875 773.498 95.3354 777.697 91.2038C780.125 88.8143 781.201 86.7619 777.511 84.1793C786.937 82.9162 819.047 84.7193 818.644 78.3668C818.223 71.765 786.091 74.4038 777.533 73.1259C776.705 63.9856 781.826 62.1971 762.819 58.3709C749.238 55.6369 731.617 55.7762 717.46 56.8366C708.57 57.5036 700.106 60.2352 691.083 59.5975C680.602 58.8572 673.023 55.3095 661.653 57.6062C662.698 59.898 668.86 63.4236 664.297 65.5273C659.491 67.7434 646.814 62.9863 642.331 62.1214C626.403 59.0526 616.188 60.3744 597.717 62.3853Z" fill="white"/>
<path d="M231.441 122.632C235.065 120.799 252.242 116.181 257.013 118.468C259.976 119.89 257.863 126.387 258.173 128.425C267.821 119.617 274.731 113.328 292.205 107.884C298.495 105.925 323.907 96.5473 319.748 107.154C321.338 106.188 324.191 105.817 325.538 105.245C327.221 109.626 320.692 113.68 319.319 117.904C317.56 123.318 320.993 125.236 311.815 127.941C306.198 129.595 289.26 130.511 287.581 135.088C285.499 140.773 304.807 141.848 311.762 141.467C341.714 139.825 328.182 120.379 335.991 110.012C345.236 97.7445 368.836 104.874 383.941 107.884C406.35 112.348 431.438 111.5 446.003 123.682C449.91 126.951 454.556 132.014 453.413 136.08C452.377 139.764 448.315 140.612 450.973 144.719C455.438 151.616 468.186 151.797 465.368 159.887C463.969 163.901 458.658 167.515 451.85 169.599C443.429 172.179 440.971 170.948 438.614 165.79C437.675 163.74 434.991 152.472 428.037 160.004C423.483 164.937 443.739 177.843 427.833 180.437C419.386 181.815 418.194 174.759 412.073 175.568C406.367 176.323 410.327 182.575 410.013 184.72C390.948 188.688 383.781 174.205 383.498 166.467C377.283 166.279 361.634 169.821 362.976 163.647C364.185 158.091 380.769 160.19 387.334 159.357C402.266 157.458 418.407 143.891 408.489 135.913C403.878 132.202 393.371 129.732 385.558 131.706C374.936 134.389 382.519 141.702 376.65 146.476C368.836 152.838 357.457 150.172 347.313 152.721C337.984 155.064 344.018 156.828 345.129 162.169C348.389 177.83 317.13 166.264 301.184 168.673C287.86 170.686 259.56 175.695 253.784 182.631C247.99 189.59 251.565 203.48 260.645 208.657C268.268 213.004 276.352 213.883 280.853 220.165C285.322 226.398 272.676 238.81 279.502 243.865C290.199 251.784 293.924 231.118 295.24 228.565C299.359 220.556 318.619 222.941 324.523 213.835C327.735 208.88 321.741 202.644 325.418 198.315C328.058 195.2 336.235 195.828 339.229 193.357C342.308 190.816 340.049 187.462 343.34 184.679C347.021 181.566 357.904 177.718 365.005 178.275C372.371 178.852 374.395 182.302 379.959 184.701C384.583 186.695 387.648 184.916 388.335 189.822C388.959 194.283 372.535 209.554 391.285 205.449C399.728 203.602 402.726 196.495 412.936 196.192C419.461 204.259 413.964 213.446 417.463 221.883C419.669 227.199 423.372 232.079 430.548 235.714C436.586 238.771 448.116 241.102 448.08 246.648C448.045 252.568 434.291 256.233 437.644 263.072C440.049 267.98 448.257 269.322 448.457 275.254C448.895 288.355 413.229 279.83 407.382 272.53C402.562 266.514 415.696 260.157 420.861 255.326C406.505 255.541 397.043 257.936 381.66 256.162C373.735 255.248 350.817 255.168 356.101 263.905C357.523 266.258 367.959 268.005 370.679 270.338C373.545 272.793 377.589 281.003 375.808 283.959C371.312 291.409 343.008 287.338 331.3 289.542C319.912 291.687 314.424 294.744 309.038 300.007C301.335 307.53 300.83 303.679 286.917 305.546C269.836 307.838 270.806 320.96 263.808 327.811C254.001 337.411 234.414 341.719 223.796 351.103C211.757 361.741 219.49 370.1 219.672 381.163C219.721 384.078 220.536 388.896 212.727 387.945C204.031 386.887 201.892 374.48 199.761 370.874C196.878 365.99 193.401 361.981 183.31 361.38C176.976 361.001 168.241 362.384 167.616 366.198C157.468 363.444 152.804 358.878 140.557 362.186C126.608 365.953 119.853 375.868 117.762 383.924C115.441 392.859 113.386 416.195 135.675 419.799C142.164 420.847 144.494 418.225 148.18 415.528C151.905 412.801 156.68 406.602 164.383 406.852C173.929 407.159 172.967 413.353 171.306 417.429C169.3 422.34 161.092 427.918 164.604 433.315C168.166 438.785 174.682 435.866 181.392 438.299C195.075 443.259 185.764 456.558 190.158 463.78C193.259 468.874 197.25 468.605 205.87 468.618C217.116 468.632 223.198 470.223 230.201 474.506C233.886 472.754 232.921 471.085 234.573 469.077C238.746 464.002 243.033 461.029 253.208 458.964C273.15 454.921 265.287 464.33 279.059 468.681C291.408 472.583 311.195 467.909 324.86 469.685C338.565 471.467 337.581 477.142 344.434 482.481C362.077 496.224 401.287 496.83 412.352 514.806C414.239 517.874 415.257 521.195 413.14 524.461C411.718 526.658 405.743 528.725 405.194 530.892C404.281 534.476 412.157 539.395 418.987 539.055C429.791 538.52 427.004 530.377 440.767 533.062C451.61 535.18 454.41 539.793 458.467 544.812C470.423 541.391 486.971 545.469 497.602 548.657C504.725 550.795 511.653 554.592 518.434 556.388C520.569 556.952 522.394 557.529 523.993 557.864C527.776 558.66 531.368 556.93 535.926 558.829C547.027 563.444 540.347 573.818 534.837 579.108C529.464 584.263 522.748 586.399 513.712 589.35C507.037 591.53 506.665 590.914 505.402 595.471C502.625 605.49 510.86 620.006 498.036 628.719C490.036 634.155 472.899 631.453 463.787 636.312C458.215 639.286 457.728 644.93 457.28 648.881C456.545 655.424 454.76 660.418 449.378 666.387C442.26 674.279 431.607 678.557 418.42 682.151C421.928 687.465 428.183 693.107 418.788 697.062C414.819 698.731 409.583 698.008 406.026 699.894C399.471 703.368 403.998 707.048 405.154 711.827C406.403 716.985 405.747 722.582 408.188 727.586C410.766 732.873 419.04 733.631 423.988 738.271C427.483 741.547 427.669 745.388 432.005 748.941C436.364 752.51 444.333 755.471 444.395 759.965C432.448 762.012 417.26 752.794 409.366 748.266C394.341 739.651 385.097 729.665 375.06 719.87C368.371 713.344 354.604 712.123 346.99 706.247C340.815 701.48 339.553 694.433 337.183 688.789C334.41 682.18 332.155 675.762 327.925 669.346C322.477 661.078 314.167 653.081 311.678 644.329C309.25 635.785 312.953 626.019 309.046 617.712C305.955 611.139 295.607 606.057 287.129 601.598C268.605 591.854 256.978 580.953 244.916 568.809C235.361 559.19 217.745 553.085 215.686 541.782C214.219 533.739 209.608 524.322 211.73 516.267C214.445 505.963 226.445 497.168 224.567 486.197C222.813 475.96 208.798 479.493 195.088 477.839C183.368 476.424 180.121 473.766 174.668 467.384C170.819 462.881 173.667 457.352 169.362 452.898C165.473 448.869 156.233 447.224 150.926 443.843C146.302 440.901 144.384 435.018 137.912 432.99C132.402 431.262 123.069 432.631 116.814 431.145C105.953 428.565 96.2835 422.53 91.9824 416.642C84.9971 407.076 86.4544 395.981 82.9728 386.005C79.7747 376.846 67.3765 368.988 62.4464 359.96C49.5831 336.407 51.3284 305.106 68.0941 282.281C73.1083 275.459 81.1036 269.356 86.3038 262.554C97.2137 248.292 98.3433 232.621 108.673 218.303C116.925 206.859 126.028 190.799 142.063 182.092C142.071 182.094 201.059 137.988 231.441 122.632Z" fill="white"/>
<path d="M354.676 81.0737C346.287 81.7945 336.307 84.8559 332.901 89.4469C330.163 93.1411 331.669 95.3278 338.473 95.6992C348.754 96.2587 371.823 90.0626 372.239 83.5732C364.953 83.3655 358.269 84.5505 351.217 84.3526C354.22 82.9355 359.279 81.5966 360.457 79.488C359.465 79.9058 358.814 79.725 354.676 81.0737Z" fill="white"/>
<path d="M418.008 66.8537C397.818 66.1427 396.219 77.5602 416.958 76.6024C429.148 76.0404 427.851 66.9392 417.273 66.8537" fill="white"/>
<path d="M736.178 179.79C730.026 174.479 703.028 171.859 705.393 180.604C706.806 185.837 721.579 195.369 729.95 196.981C747.646 200.392 782.121 195.711 793.173 187.325C804.831 178.478 782.356 178.363 772.673 178.571C763.597 178.767 755.301 179.705 746.49 180.702C739.811 181.459 739.638 180.768 736.178 179.79Z" fill="white"/>
<path d="M1016.03 98.2598C1002.38 90.7565 979.511 94.2992 961.961 93.8228C954.236 93.6127 936.513 92.1003 933.501 97.8298C931.127 102.347 943.951 107.532 948.965 110.291C955.684 113.985 968.335 123.533 979.369 121.439C990.717 119.287 983.324 112.377 989.016 110.032C994 107.977 1017.9 131.359 1020.98 117.337C1021.81 113.589 1016.78 111.747 1016.63 108.724C1016.4 104.412 1021.59 102.323 1016.03 98.2598Z" fill="white"/>
<path d="M1478.58 357.59C1466.8 243.841 1287.09 134.697 1287.09 134.697C1256.93 146.749 1290.1 159.968 1294.56 174.202C1285.65 172.348 1264.53 165.597 1255.02 168.192C1238.89 172.595 1257.66 183.631 1260.72 189.639C1251.47 186.668 1238.97 188.346 1232.26 193.069C1212.79 188.017 1200.34 184.625 1188.37 196.971C1184.73 192.713 1177.32 187.093 1168.04 190.088C1167.6 195.036 1169.16 202.134 1163.07 206.033C1156.9 209.994 1147.08 207.658 1148.33 215.885C1133.43 208.479 1119.99 199.036 1104.88 191.694C1113.32 192.185 1123.16 194.88 1130.95 191.408C1137.07 188.681 1139.12 179.497 1134.65 176.125C1128.77 171.688 1118.29 173.899 1109.18 172.878C1094.11 171.187 1083.87 164.678 1068.73 162.499C1028.63 156.728 1014.46 174.703 991.023 188.315C965.106 203.373 929.847 200.753 926.175 226.083C922.122 254.039 948.504 233.655 970.142 233.066C970.926 241.774 986.961 245.075 991.098 253.316C994.124 259.346 993.007 267.589 1009.54 259.309C1015.57 256.292 1014.47 251.913 1017.53 248.441C1022.06 243.301 1023.36 246.042 1029.38 241.761C1040.86 233.606 1025.01 231.38 1023.35 224.922C1021.28 216.838 1036.07 217.355 1042.28 210.888C1045.85 207.165 1049.83 190.384 1067.65 195.754C1082.8 200.321 1058.98 213.165 1056.13 217.979C1052.92 223.405 1052.03 231.248 1058.91 235.885C1069.71 243.176 1089.98 239.56 1103.04 241.918C1117.81 244.586 1115.8 250.054 1100.02 250.897C1095.81 251.122 1084.91 248.353 1080.8 250.027C1076.09 251.943 1078.42 256.05 1076.15 258.882C1066.55 256.316 1057.99 256.492 1051.66 261.445C1042.72 268.442 1053.58 267.997 1036 269.637C1024.67 270.692 1013.41 273.075 1003.52 272.004C993.162 270.885 990.159 267.614 978.124 270.26C966.847 263.846 984.662 251.122 968.875 246.721C948.748 252.27 962.825 262.341 954.072 269.099C949.913 272.312 938.839 269.329 933.577 271.154C925.347 274.01 930.294 274.721 927.668 279.317C920.363 292.11 906.924 287.023 888.236 291.504C882.07 292.982 882.15 296.657 877.295 297.84C869.96 299.623 860.149 295.778 852.742 295.69C855.254 306.103 876.104 312.756 865.553 324.691C845.469 325.349 824.757 322.065 805.417 325.63C788.895 325.466 804.084 328.535 804 333.348C803.907 338.799 796.523 343.251 793.781 348.198C806.959 349.909 803.708 355.665 799.668 360.405C811.411 362.335 814.87 363.434 824.309 367.209C823.813 378.561 810.113 378.199 796.505 383.318C786.796 386.971 789.515 389.214 784.794 393.858C779.336 399.226 777.184 399.092 767.908 401.975C746.168 408.735 711.884 419.691 707.025 434.7C704.814 441.524 710.311 447.76 708.726 454.466C706.484 463.956 696.651 471.386 706.737 480.839C713.576 487.25 721.04 492.025 725.801 499.042C731.099 506.841 735.396 512.946 745.065 519.431C759.359 529.021 767.022 525.014 786.309 527.068C794.937 527.987 801.187 530.814 810.148 531.251C826.077 532.031 843.684 527.98 859.927 527.941C867.262 527.924 877.951 527.623 884.232 529.942C891.868 532.764 889.516 537.054 894.473 539.353C906.486 544.924 926.091 534.428 927.699 546.221C928.846 554.629 913.856 560.08 916.638 569.784C920.589 583.567 933.922 594.645 932.102 610.362C930.773 621.839 912.913 629.161 909.932 640.94C908.421 646.909 912.412 652.988 911.482 658.752C910.627 664.032 907.177 665.559 903.013 670.308C895.066 679.366 899.943 688.899 898.26 698.565C896.639 707.871 891.527 712.357 912.926 714.046C938.431 716.056 964.34 710.163 984.808 702.628C997.592 697.925 1005.35 691.802 1016.13 686.322C1022.04 683.321 1027.73 683.219 1033.73 680.912C1047.78 675.508 1043.88 665.661 1058.84 659.614C1073.14 653.833 1089.6 652.597 1099.17 642.88C1110.78 631.104 1111.28 616.41 1125.01 604.794C1138.97 592.981 1163.91 583.142 1183.07 573.857C1196.45 567.375 1271.15 529.82 1221.66 526.318C1208.86 525.412 1195.21 526.817 1182.67 527.005C1182.33 522.39 1184.14 516.682 1181.04 512.507C1177.97 508.368 1170.07 506.574 1167.75 501.964C1164.49 495.504 1170.17 487.639 1167.86 481.042C1165.92 475.51 1160.71 472.258 1158.95 466.905C1157.24 461.706 1159.28 457.122 1156 451.908C1153.61 448.128 1144.34 442.89 1145.58 438.715C1147.38 432.66 1155.56 433.615 1162.99 437.124C1180.46 445.368 1185.28 464.425 1188.49 475.945C1192.09 488.887 1192.83 501.548 1192.81 514.818C1208.78 515.309 1237.7 517.102 1250.34 509.291C1256.74 505.34 1253.92 499.01 1262.09 496.151C1278.62 504.952 1305.2 492.078 1310.37 482.457C1315.29 473.292 1298.12 463.971 1297.11 454.896C1269.98 472.686 1237.92 437.058 1252.75 426.405C1264.38 436.266 1283.39 450.669 1307.42 441.085C1309.05 453.601 1335.01 457.994 1354.63 457.332C1355.48 465.747 1354.63 471.753 1362.59 479.253C1369.88 486.124 1372.16 488.584 1372.53 496.865C1372.94 505.851 1370.78 513.071 1365.11 521.337C1361.04 527.266 1354.89 533.494 1356.56 540.003C1402.6 542.823 1410.37 491.111 1441.84 479.886C1466.07 489.422 1438.33 522.204 1434.36 534.462C1430.55 546.224 1422.62 581.116 1431.45 570.188C1517.86 463.216 1478.58 357.59 1478.58 357.59ZM1169.49 392.83C1167.65 398.791 1158.19 414.16 1143.72 413.949C1137.13 413.854 1135.77 409.933 1130.95 408.469C1123.23 406.126 1114.68 408.318 1106.86 409.07C1090.16 410.675 1090.16 406.908 1079.89 400.506C1073.93 396.795 1071.16 396.328 1061.47 398.183C1048.75 400.616 1051.84 404.306 1045.94 409.327C1037.23 416.725 1031.4 407.8 1020.24 406.48C1007.08 404.924 1003.19 407.194 995.891 399.554C989.964 393.348 981.442 390.191 967.037 389.446C975.422 384.046 971.471 381.08 968.902 375.47C967.449 372.299 971.431 372.387 965.699 370.053C962.156 368.612 952.083 368.534 947.654 368.399C929.736 367.852 912.793 368.692 895.78 370.579C882.07 372.098 865.194 376.983 851.064 375.468C844.951 374.813 834.546 372.304 842.958 368.822C848.663 366.462 858.864 369.56 865.101 366.953C867.878 365.792 868.636 363.158 871.488 361.78C874.11 360.512 878.026 360.402 880.569 359.205C888.449 355.494 881.663 353.925 882.513 348.386C884.263 336.971 913.445 343.715 914.105 330.607C921.971 328.855 927.668 331.811 934.56 333.113C947.388 335.54 955.822 331.755 966.962 328.886C975.351 327.68 976.073 336.51 979.723 339.73C986.363 345.586 998.854 347.966 1006.04 353.29C1011.46 357.302 1006.95 366.716 1015.52 368.03C1027.58 369.885 1024.69 361.612 1025.05 357.673C1028.09 357.571 1036.32 358.433 1038.11 356.803C1043.97 351.472 973.323 329.087 993.056 323.509C1001.11 321.232 1019.96 333.194 1024.44 335.647C1031.79 339.666 1040.88 344.487 1044.53 349.916C1046.19 352.376 1045.86 354.824 1047.39 357.321C1050.95 363.156 1057.75 363.62 1058.28 370.576C1058.56 374.248 1060.55 386.26 1073.42 382.468C1077.05 381.395 1075.59 378.886 1077.87 377.092C1080.92 374.691 1085.17 375.126 1085.99 371.676C1087.25 366.393 1064.37 362.34 1075.45 357.883C1082.1 355.213 1096.5 358.262 1101.24 361.492C1107.47 365.726 1103.17 371.668 1108.45 375.739C1111.13 377.808 1114.52 378.146 1118.94 378.747C1125.06 379.577 1125.67 379.062 1130.7 380.884C1139.15 383.946 1143.7 386.431 1155.01 384.136C1158.09 383.511 1165.77 379.677 1169.32 380.972C1172.68 382.197 1170.14 390.719 1169.49 392.83ZM1205.38 356.63C1200.12 367.131 1177.03 361.927 1167.35 357.048C1162.64 354.673 1157.93 350.876 1150.59 351.067C1141.29 351.309 1134.17 358.758 1123.62 357.075C1095.3 352.555 1120.32 323.155 1143.72 322.925C1150 323.462 1145.08 336.182 1153.78 340.282C1162.37 344.328 1175.37 342.212 1170.24 335.647C1167.25 331.816 1151.07 327.032 1165.25 323.401C1177.3 320.315 1184.67 327.213 1180.78 332.566C1179.24 334.692 1174.04 334.677 1175.6 337.567C1176.49 339.229 1186.28 341.877 1188.89 342.857C1197.41 346.051 1208.81 349.777 1205.38 356.63Z" fill="white"/>
<mask id="mask0_1_4026" style="mask-type:luminance" maskUnits="userSpaceOnUse" x="8" y="7" width="1480" height="816">
<path d="M747.985 822.879C1156.37 822.879 1487.43 640.269 1487.43 415.007C1487.43 189.746 1156.37 7.1355 747.985 7.1355C339.6 7.1355 8.53931 189.746 8.53931 415.007C8.53931 640.269 339.6 822.879 747.985 822.879Z" fill="white"/>
</mask>
<g mask="url(#mask0_1_4026)">
<path d="M203.916 498.423L304.789 441.942L406.15 385.727L608.898 273.314L812.695 161.477L914.605 105.568L1017.01 49.9268L916.138 106.413L814.777 162.626L612.025 275.036L408.227 386.87L306.313 442.78L203.916 498.423Z" fill="white"/>
<path d="M190.167 526.59L277.295 477.69L364.747 428.971L540.16 331.811L716.296 235.052L804.625 186.817L893.277 138.76L806.157 187.663L718.705 236.382L543.288 333.539L367.143 430.295L278.819 478.531L190.167 526.59Z" fill="white"/>
<path d="M459.229 480.006C488.371 463.218 517.854 446.621 547.39 430.053L636.388 380.559L726.108 331.467L771.227 307.063L816.673 282.84L772.759 307.908L728.513 332.796L639.511 382.284L549.791 431.377C519.754 447.669 489.664 463.932 459.229 480.006Z" fill="white"/>
<path d="M619.302 329.966C635.514 320.31 652.067 310.845 668.678 301.409C685.279 291.968 702.16 282.684 718.886 273.311C735.864 264.081 752.71 254.774 769.817 245.614L795.539 231.907C804.23 227.402 812.81 222.835 821.593 218.384C813.518 223.229 805.244 227.961 797.076 232.755L772.226 246.943C755.62 256.379 738.748 265.671 722.013 275.036C705.026 284.262 688.19 293.573 671.074 302.731C653.967 311.893 636.807 321.024 619.302 329.966Z" fill="white"/>
<path d="M841.445 215.02C855.659 206.468 870.214 198.105 884.823 189.771C899.423 181.432 914.306 173.25 929.034 164.981C944.014 156.853 958.862 148.651 973.971 140.593L996.695 128.54C1004.38 124.587 1011.97 120.572 1019.75 116.67C1012.68 120.963 1005.4 125.146 998.232 129.388L976.381 141.922C961.772 150.256 946.902 158.443 932.165 166.709C917.176 174.833 902.342 183.042 887.224 191.095C872.11 199.151 856.948 207.179 841.445 215.02Z" fill="white"/>
<path d="M1015.04 172.343C1025.86 165.668 1037.01 159.181 1048.22 152.723C1059.39 146.246 1070.8 139.903 1082.22 133.563C1093.71 127.262 1105.21 120.966 1116.95 114.804L1134.57 105.566C1140.56 102.551 1146.44 99.4744 1152.53 96.5107C1147.15 99.8654 1141.58 103.11 1136.11 106.413L1119.36 116.133C1108.19 122.607 1096.78 128.95 1085.35 135.291C1073.86 141.589 1062.36 147.886 1050.62 154.048C1038.9 160.227 1027.14 166.379 1015.04 172.343Z" fill="white"/>
<path d="M1037.63 236.801C1056.13 225.882 1074.98 215.154 1093.87 204.452C1112.76 193.748 1131.93 183.198 1150.95 172.565C1170.23 162.071 1189.36 151.502 1208.76 141.076L1237.92 125.473C1247.75 120.335 1257.48 115.138 1267.41 110.054C1258.19 115.532 1248.77 120.897 1239.46 126.321L1211.17 142.405C1192.27 153.104 1173.11 163.662 1154.08 174.29C1134.8 184.782 1115.68 195.356 1096.27 205.777C1076.87 216.2 1057.42 226.593 1037.63 236.801Z" fill="white"/>
<path d="M870.686 222.718C881.662 215.953 892.98 209.376 904.346 202.828C915.681 196.26 927.26 189.827 938.843 183.396C950.497 177.007 962.16 170.62 974.066 164.365L991.935 154.993C998.004 151.931 1003.97 148.811 1010.13 145.801C1004.67 149.202 999.018 152.491 993.468 155.838L976.476 165.695C965.141 172.26 953.562 178.693 941.975 185.121C930.316 191.51 918.653 197.897 906.747 204.149C894.876 210.421 882.951 216.664 870.686 222.718Z" fill="white"/>
<path d="M624.216 361.925C636.991 354.165 650.106 346.596 663.28 339.056C676.444 331.511 689.888 324.12 703.176 316.646C716.717 309.311 730.13 301.901 743.799 294.637L764.366 283.774C771.338 280.216 778.199 276.598 785.264 273.094C778.908 276.991 772.352 280.776 765.903 284.622L746.209 295.966C733.036 303.506 719.605 310.902 706.308 318.373C692.758 325.703 679.359 333.121 665.68 340.38C652.007 347.641 638.284 354.878 624.216 361.925Z" fill="white"/>
<path d="M1017 135.51C1026.83 129.375 1037 123.431 1047.22 117.516C1057.41 111.581 1067.85 105.78 1078.28 99.9801C1088.79 94.2213 1099.31 88.4673 1110.07 82.8453L1126.22 74.4184C1131.71 71.6722 1137.11 68.8673 1142.7 66.1748C1137.81 69.2607 1132.73 72.2317 1127.75 75.2663L1112.48 84.1745C1102.28 90.1092 1091.85 95.9096 1081.41 101.707C1070.9 107.464 1060.38 113.22 1049.62 118.84C1038.89 124.479 1028.12 130.089 1017 135.51Z" fill="white"/>
<path d="M1012.11 100.302C1020.79 94.8001 1029.82 89.4884 1038.9 84.2035C1047.94 78.8992 1057.23 73.7316 1066.52 68.5641C1075.88 63.4381 1085.25 58.3145 1094.87 53.3253L1109.3 45.8464C1114.23 43.4178 1119.04 40.9281 1124.06 38.5508C1119.75 41.319 1115.24 43.9773 1110.84 46.6918L1097.28 54.652C1088.23 59.954 1078.94 65.1239 1069.65 70.289C1060.28 75.4126 1050.91 80.5362 1041.3 85.5254C1031.71 90.5341 1022.08 95.5111 1012.11 100.302Z" fill="white"/>
<path d="M890.33 160.967C900.553 153.967 911.729 147.492 923.135 141.144C934.634 134.848 946.372 128.686 959.072 123.049C948.853 130.052 937.681 136.526 926.267 142.872C914.759 149.166 903.02 155.328 890.33 160.967Z" fill="white"/>
<path d="M800.974 216.759C806.285 212.466 812.558 208.703 819.051 205.063C825.642 201.476 832.468 198.019 840.255 195.092C834.949 199.387 828.681 203.152 822.178 206.788C815.578 210.37 808.757 213.829 800.974 216.759Z" fill="white"/>
<path d="M581.978 332.134C592.202 325.134 603.377 318.659 614.783 312.311C626.282 306.015 638.025 299.853 650.72 294.216C640.501 301.219 629.33 307.693 617.915 314.039C606.407 320.33 594.669 326.492 581.978 332.134Z" fill="white"/>
<path d="M1087.72 161.509C1096.96 155.051 1107.15 149.119 1117.58 143.314C1128.1 137.56 1138.85 131.938 1150.57 126.844C1141.33 133.304 1131.14 139.239 1120.71 145.039C1110.18 150.79 1099.42 156.412 1087.72 161.509Z" fill="white"/>
<path d="M1181.99 118.177C1187.95 113.523 1194.88 109.399 1202.02 105.397C1209.27 101.451 1216.75 97.6319 1225.2 94.3433C1219.24 99.0002 1212.31 103.127 1205.16 107.124C1197.9 111.068 1190.42 114.886 1181.99 118.177Z" fill="white"/>
<path d="M1118.16 176.135C1125.77 170.581 1134.32 165.55 1143.11 160.647C1151.99 155.797 1161.11 151.076 1171.19 146.886C1163.58 152.445 1155.03 157.475 1146.24 162.374C1137.35 167.219 1128.23 171.94 1118.16 176.135Z" fill="white"/>
<path d="M373.804 388.466C384.453 381.881 395.442 375.484 406.485 369.117C417.492 362.731 428.743 356.478 439.999 350.228C451.325 344.017 462.66 337.811 474.239 331.74L491.616 322.636C497.521 319.665 503.323 316.636 509.321 313.716C504.028 317.026 498.535 320.225 493.149 323.484L476.644 333.069C465.637 339.456 454.386 345.706 443.126 351.956C431.795 358.162 420.46 364.37 408.882 370.442C397.338 376.53 385.742 382.592 373.804 388.466Z" fill="white"/>
<path d="M283.453 404.716C299.665 395.06 316.218 385.594 332.824 376.159C349.426 366.718 366.307 357.433 383.033 348.061C400.011 338.83 416.856 329.524 433.963 320.364L459.685 306.657C468.376 302.151 476.956 297.585 485.74 293.133C477.665 297.978 469.39 302.711 461.222 307.505L436.373 321.693C419.767 331.129 402.895 340.421 386.16 349.788C369.173 359.014 352.336 368.325 335.22 377.483C318.118 386.643 300.958 395.773 283.453 404.716Z" fill="white"/>
<path d="M465.125 319.675C476.589 312.638 488.398 305.79 500.26 298.973C512.113 292.151 524.25 285.484 536.228 278.73C548.462 272.119 560.559 265.432 572.922 258.888L591.526 249.108C597.842 245.912 604.048 242.655 610.462 239.511C604.761 243.046 598.857 246.472 593.063 249.956L575.331 260.218C563.469 267.034 551.346 273.709 539.359 280.458C527.116 287.067 515.028 293.759 502.661 300.297C490.294 306.838 477.882 313.349 465.125 319.675Z" fill="white"/>
<path d="M548.597 245.467C550.307 243.161 552.978 241.382 555.871 239.728C558.861 238.128 562.085 236.657 566.276 235.716C564.57 238.025 561.904 239.804 559.002 241.456C555.999 243.051 552.774 244.522 548.597 245.467Z" fill="white"/>
<path d="M369.874 314.8C372.895 311.771 376.872 309.271 381.076 306.896C385.377 304.575 389.909 302.381 395.406 300.717C392.393 303.749 388.416 306.249 384.203 308.621C379.898 310.94 375.366 313.134 369.874 314.8Z" fill="white"/>
<path d="M629.129 250.884C640.664 243.164 653.146 235.966 665.863 228.897C678.674 221.88 691.723 214.995 705.725 208.635C694.199 216.361 681.712 223.556 668.991 230.622C656.176 237.637 643.127 244.522 629.129 250.884Z" fill="white"/>
<path d="M777.397 147.427C787.554 141.111 798.052 134.985 808.603 128.889C819.119 122.774 829.878 116.793 840.642 110.814C851.481 104.874 862.324 98.9396 873.407 93.1368L890.048 84.4411C895.709 81.6045 901.264 78.7116 907.018 75.9263C901.973 79.1001 896.724 82.164 891.581 85.2865L875.816 94.4659C865.301 100.581 854.537 106.563 843.773 112.539C832.934 118.476 822.091 124.411 811.004 130.211C799.952 136.033 788.847 141.824 777.397 147.427Z" fill="white"/>
<path d="M851.051 130.635C862.585 122.915 875.067 115.717 887.785 108.648C900.595 101.631 913.644 94.7461 927.646 88.3862C916.12 96.1119 903.633 103.307 890.912 110.373C878.097 117.388 865.048 124.273 851.051 130.635Z" fill="white"/>
<path d="M843.201 74.3011C853.849 67.7164 864.839 61.3199 875.882 54.9527C886.889 48.566 898.14 42.3136 909.395 36.0637C920.722 29.8553 932.057 23.6469 943.635 17.5754L961.012 8.4717C966.917 5.50067 972.72 2.47099 978.717 -0.44873C973.428 2.86192 967.931 6.06018 962.545 9.31708L946.045 18.9021C935.038 25.2864 923.782 31.5387 912.527 37.7887C901.196 43.997 889.861 50.203 878.282 56.2745C866.735 62.3681 855.138 68.4299 843.201 74.3011Z" fill="white"/>
<path d="M936.489 67.2592C946.384 60.44 957.232 54.1461 968.31 47.9793C979.481 41.8638 990.896 35.8826 1003.26 30.4268C993.372 37.2484 982.524 43.5423 971.442 49.7067C960.262 55.8174 948.847 61.801 936.489 67.2592Z" fill="white"/>
<path d="M731.898 138.205C740.429 132.141 749.909 126.599 759.623 121.188C769.43 115.827 779.476 110.598 790.474 105.895C781.952 111.964 772.468 117.503 762.75 122.912C752.938 128.271 742.892 133.499 731.898 138.205Z" fill="white"/>
<path d="M566.265 223.8C573.312 219.202 580.7 214.792 588.142 210.411C595.548 206.011 603.198 201.745 610.852 197.481C618.582 193.257 626.311 189.037 634.289 184.952L646.266 178.829C650.372 176.85 654.372 174.815 658.571 172.887C655.081 175.203 651.387 177.41 647.799 179.675L636.698 186.281C629.288 190.682 621.638 194.948 613.984 199.209C606.254 203.431 598.52 207.65 590.543 211.735C582.596 215.838 574.601 219.913 566.265 223.8Z" fill="white"/>
<path d="M617.348 236.801C628.227 229.442 640.054 222.606 652.115 215.897C664.27 209.241 676.664 202.715 690.014 196.719C679.144 204.083 667.313 210.92 655.247 217.624C643.088 224.275 630.69 230.801 617.348 236.801Z" fill="white"/>
<path d="M458.259 257.383C467.831 250.745 478.346 244.632 489.101 238.646C499.949 232.711 511.032 226.908 523.071 221.633C513.508 228.274 502.988 234.39 492.233 240.371C481.376 246.303 470.289 252.103 458.259 257.383Z" fill="white"/>
<path d="M471.995 286.632C478.289 281.797 485.54 277.492 493.017 273.312C500.592 269.185 508.396 265.185 517.167 261.716C510.881 266.554 503.63 270.859 496.144 275.037C488.565 279.163 480.761 283.163 471.995 286.632Z" fill="white"/>
<path d="M177.402 402.549C188.701 395.602 200.347 388.844 212.045 382.115C223.734 375.384 235.707 368.807 247.521 362.144C259.591 355.62 271.524 349.024 283.723 342.571L302.084 332.927C308.316 329.775 314.442 326.565 320.772 323.464C315.151 326.956 309.33 330.335 303.616 333.773L286.133 343.9C274.435 350.629 262.475 357.211 250.648 363.869C238.569 370.388 226.645 376.989 214.441 383.437C202.247 389.892 189.995 396.316 177.402 402.549Z" fill="white"/>
<path d="M418.967 251.967C429.615 245.382 440.605 238.986 451.648 232.619C462.655 226.232 473.906 219.98 485.161 213.73C496.488 207.519 507.823 201.313 519.402 195.241L536.779 186.138C542.683 183.167 548.486 180.137 554.483 177.217C549.195 180.528 543.698 183.726 538.311 186.986L521.807 196.571C510.8 202.957 499.549 209.207 488.289 215.457C476.958 221.665 465.623 227.871 454.044 233.943C442.501 240.032 430.904 246.093 418.967 251.967Z" fill="white"/>
<path d="M405.231 227.05C411.623 222.811 418.361 218.762 425.147 214.743C431.897 210.704 438.896 206.8 445.894 202.896C452.968 199.033 460.047 195.175 467.369 191.449L478.363 185.866C482.141 184.068 485.813 182.211 489.689 180.466C486.526 182.604 483.16 184.627 479.9 186.714L469.778 192.778C463.023 196.817 456.029 200.721 449.026 204.623C441.948 208.483 434.869 212.344 427.547 216.067C420.256 219.81 412.917 223.524 405.231 227.05Z" fill="white"/>
<path d="M265.784 217.301C273.39 211.748 281.948 206.717 290.731 201.813C299.613 196.963 308.733 192.243 318.81 188.053C311.209 193.611 302.656 198.642 293.863 203.541C284.973 208.386 275.853 213.106 265.784 217.301Z" fill="white"/>
<path d="M464.143 146.886C471.749 141.333 480.307 136.3 489.09 131.398C497.972 126.548 507.092 121.828 517.169 117.638C509.568 123.196 501.015 128.227 492.222 133.126C483.332 137.971 474.212 142.689 464.143 146.886Z" fill="white"/>
<path d="M474.006 170.688C479.627 166.224 486.21 162.291 493.013 158.479C499.915 154.721 507.051 151.093 515.148 147.995C509.531 152.461 502.953 156.398 496.141 160.204C489.235 163.96 482.099 167.588 474.006 170.688Z" fill="white"/>
<path d="M406.213 211.343C415.458 204.885 425.65 198.953 436.072 193.145C446.593 187.391 457.347 181.769 469.064 176.675C459.828 183.137 449.636 189.07 439.204 194.872C428.675 200.621 417.92 206.243 406.213 211.343Z" fill="white"/>
<path d="M764.644 56.9684C774.216 50.33 784.732 44.2169 795.482 38.2308C806.33 32.2961 817.413 26.4933 829.452 21.2183C819.889 27.8591 809.369 33.9746 798.609 39.9558C787.762 45.8881 776.679 51.6909 764.644 56.9684Z" fill="white"/>
<path d="M810.79 60.7607C820.686 53.9415 831.534 47.6476 842.612 41.4808C853.783 35.3652 865.198 29.3841 877.565 23.9282C867.674 30.7499 856.826 37.0438 845.744 43.2082C834.563 49.3188 823.149 55.3024 810.79 60.7607Z" fill="white"/>
<path d="M676.26 56.969C683.21 51.7771 691.112 47.1055 699.245 42.5635C707.47 38.0727 715.935 33.7163 725.361 29.8853C718.416 35.0821 710.518 39.7512 702.376 44.2909C694.142 48.7767 685.672 53.1355 676.26 56.969Z" fill="white"/>
<path d="M720.454 62.9273C728.645 57.6962 737.18 52.6533 745.769 47.6396C754.322 42.6065 763.119 37.7101 771.916 32.8138C780.789 27.959 789.67 23.1066 798.79 18.3886L812.482 11.3178C817.16 9.02355 821.731 6.67067 826.506 4.42773C822.439 7.06159 818.174 9.58306 814.015 12.1632L801.196 19.7153C792.642 24.7461 783.845 29.6449 775.044 34.5388C766.167 39.3911 757.29 44.2459 748.165 48.9615C739.08 53.699 729.938 58.4072 720.454 62.9273Z" fill="white"/>
<path d="M638.934 42.8851C645.654 38.4677 652.714 34.2359 659.828 30.0359C666.906 25.8163 674.233 21.7312 681.555 17.646C688.957 13.6024 696.363 9.56362 704.013 5.65681L715.498 -0.194846C719.441 -2.0835 723.276 -4.03082 727.312 -5.86572C723.985 -3.63745 720.455 -1.52399 717.031 0.650532L706.422 6.98595C699.339 11.2055 692.017 15.2907 684.687 19.3734C677.28 23.4146 669.879 27.4533 662.224 31.3577C654.615 35.2841 646.947 39.1787 638.934 42.8851Z" fill="white"/>
<path d="M565.292 51.0119C572.57 45.6391 580.8 40.7867 589.261 36.0663C597.814 31.3972 606.607 26.8576 616.356 22.8457C609.083 28.2234 600.857 33.0733 592.388 37.7913C583.83 42.4579 575.037 46.9951 565.292 51.0119Z" fill="white"/>
<path d="M493.604 54.8038C499.899 49.9685 507.15 45.6635 514.627 41.483C522.201 37.3563 530.006 33.3567 538.777 29.8872C532.491 34.7249 525.24 39.03 517.754 43.208C510.171 47.3323 502.366 51.3319 493.604 54.8038Z" fill="white"/>
<path d="M392.456 74.8433C399.011 70.5138 405.908 66.3748 412.862 62.2652C419.777 58.1361 426.939 54.1413 434.102 50.1466C441.34 46.1933 448.582 42.245 456.068 38.4286L467.306 32.7113C471.168 30.869 474.92 28.9657 478.875 27.1772C475.629 29.3591 472.182 31.4286 468.843 33.5591L458.478 39.7577C451.559 43.8869 444.401 47.8816 437.234 51.874C429.991 55.8247 422.749 59.7731 415.263 63.5895C407.808 67.423 400.305 71.2272 392.456 74.8433Z" fill="white"/>
<path d="M236.624 138.521C245.235 133.058 254.187 127.785 263.197 122.542C272.166 117.276 281.384 112.15 290.602 107.022C299.895 101.935 309.193 96.853 318.734 91.9029L333.055 84.485C337.945 82.076 342.724 79.6058 347.707 77.2505C343.433 79.9992 338.959 82.6355 334.592 85.3329L321.144 93.232C312.169 98.4948 302.956 103.623 293.734 108.749C284.436 113.834 275.139 118.918 265.597 123.866C256.087 128.831 246.528 133.771 236.624 138.521Z" fill="white"/>
<path d="M-5.24341 302.882C2.45952 297.922 10.5035 293.151 18.5963 288.408C26.658 283.646 34.9633 279.021 43.2731 274.394C51.6537 269.81 60.0432 265.229 68.6764 260.78L81.6327 254.114C86.0666 251.957 90.3943 249.738 94.9212 247.632C91.103 250.129 87.081 252.516 83.1697 254.962L71.086 262.109C63.0243 266.868 54.719 271.496 46.4048 276.121C38.0197 280.705 29.6302 285.286 20.9971 289.733C12.3994 294.199 3.74851 298.636 -5.24341 302.882Z" fill="white"/>
<path d="M-14.0872 345.674C-4.84719 340.861 4.70284 336.253 14.3016 331.679C23.8649 327.083 33.6497 322.634 43.4345 318.187C53.2858 313.784 63.1415 309.386 73.2186 305.135L88.341 298.763C93.4837 296.708 98.5288 294.59 103.756 292.591C99.1623 295.017 94.3873 297.321 89.7141 299.691L75.3758 306.591C65.808 311.187 56.0276 315.636 46.2384 320.081C36.3827 324.481 26.5271 328.879 16.4499 333.13C6.39934 337.401 -3.69108 341.64 -14.0872 345.674Z" fill="white"/>
<path d="M1020.93 79.1782C1027.56 74.1646 1035.13 69.6763 1042.93 65.315C1050.83 61.005 1058.97 56.827 1068.06 53.1792C1061.45 58.1953 1053.87 62.6836 1046.06 67.0424C1038.16 71.345 1030.02 75.523 1020.93 79.1782Z" fill="white"/>
<path d="M1127.96 97.0525C1131.64 93.6637 1136.27 90.8026 1141.13 88.0637C1146.09 85.381 1151.27 82.8253 1157.43 80.8022C1153.76 84.196 1149.12 87.0571 1144.26 89.7911C1139.3 92.4689 1134.11 95.0246 1127.96 97.0525Z" fill="white"/>
</g>
<path d="M1485.89 415.007C1485.63 388.368 1480.94 361.729 1471.19 335.652C1461.22 309.614 1446.92 284.069 1427.56 259.746C1408.42 235.379 1384.75 212.149 1357.2 190.491C1329.68 168.822 1298.44 148.65 1263.98 130.394C1229.53 112.126 1191.77 95.8851 1151.96 81.5064C1141.81 78.076 1131.86 74.482 1121.58 71.186C1111.15 68.0366 1100.91 64.6991 1090.34 61.7036C1079.68 58.8034 1069.23 55.6785 1058.42 52.9542C1047.53 50.3472 1036.82 47.4959 1025.78 45.0844C981.752 35.2599 936.164 27.5685 889.596 22.4229C843.011 17.3653 795.589 14.4725 747.998 14.2526C652.861 13.5953 557.241 23.0289 468.305 42.536C423.833 52.253 381.039 64.4156 340.739 78.787C300.55 93.2439 262.913 109.934 228.69 128.559C160.387 165.89 105.762 210.886 69.6263 260.018C33.1138 309.101 16.0159 362.247 17.0435 415.007C17.801 441.407 23.1518 467.721 33.1094 493.456C43.1068 519.184 57.5647 544.345 76.2573 568.48C113.642 616.747 167.979 660.897 235.445 697.729C302.933 734.54 383.511 763.94 471.189 783.645C515.041 793.462 560.519 801.058 606.931 806.118C653.348 811.198 700.66 813.646 747.998 813.761C795.341 813.846 842.701 811.427 889.189 806.465C935.681 801.498 981.265 793.99 1025.28 784.273C1036.32 781.896 1047.03 779.074 1057.93 776.498C1068.74 773.806 1079.2 770.713 1089.87 767.842C1100.44 764.871 1110.68 761.553 1121.12 758.425C1131.41 755.149 1141.37 751.577 1151.53 748.169C1191.41 733.89 1229.15 717.669 1263.64 699.442C1332.5 662.983 1389.06 618.965 1427.32 570.219C1446.67 545.904 1461.02 520.376 1471.01 494.348C1480.8 468.278 1485.57 441.646 1485.89 415.007ZM1488.99 415.007C1489.19 441.766 1484.56 468.525 1475.52 494.834C1466.72 521.18 1452.87 546.996 1435.14 572C1417.24 596.968 1394.99 621.044 1368.73 643.779C1342.43 666.502 1312.02 687.841 1278.08 707.395C1244.08 726.91 1206.66 744.728 1166.07 760.133C1155.77 763.849 1145.64 767.732 1135.17 771.316C1124.55 774.751 1114.1 778.382 1103.29 781.656C1092.33 784.764 1081.55 788.094 1070.41 791.019C1059.18 793.826 1048.12 796.878 1036.72 799.482C945.869 820.942 846.874 831.673 747.998 832C649.104 831.983 549.976 821.352 458.808 800.108C367.591 778.969 284.245 747.802 214.821 709.103C145.389 670.413 89.9268 624.145 53.2681 573.735C16.3569 523.367 -1.21495 468.982 0.0651755 415.007C0.729603 388.009 6.09375 361.072 16.1842 334.711C18.6027 328.112 21.8363 321.608 24.6224 315.057C27.5858 308.529 31.4527 302.135 34.7882 295.668C38.2653 289.222 42.624 282.928 46.4954 276.556C50.5484 270.216 55.4563 264.051 59.8947 257.792C97.8025 208.249 152.981 162.829 221.576 124.635C255.839 105.521 293.375 88.1692 333.643 72.9427C373.797 57.6258 416.741 44.4614 461.687 33.7378C551.558 12.2613 649.516 0.709476 747.993 0.0155831C846.426 -0.460857 945.382 9.98905 1036.22 31.1894C1047.62 33.7622 1058.68 36.7821 1069.92 39.5577C1081.07 42.4505 1091.85 45.7514 1102.83 48.8299C1113.64 52.0795 1124.09 55.6907 1134.73 59.1039C1145.2 62.6662 1155.34 66.5266 1165.65 70.2233C1206.3 85.5281 1243.71 103.332 1277.74 122.8C1311.7 142.317 1342.18 163.611 1368.48 186.323C1394.74 209.043 1417 233.105 1434.91 258.063C1452.62 283.058 1466.51 308.859 1475.34 335.195C1484.42 361.497 1489.13 388.248 1488.99 415.007Z" fill="#0077B6"/>
<path d="M935.317 241.72C930.657 236.093 929.027 229.643 930.808 223.383C931.822 220.268 933.771 217.18 937.049 214.468C940.229 211.719 945.23 209.601 950.448 208.315C955.657 206.986 960.982 206.136 965.752 204.726C970.549 203.326 974.886 201.411 978.726 199.229C982.598 197.049 985.92 194.601 989.3 192.156C992.706 189.72 996.103 187.274 999.678 184.899C1006.81 180.147 1014.67 175.658 1023.68 171.859C1032.6 168.062 1042.89 164.837 1054.51 163.806C1057.36 163.44 1060.34 163.557 1063.25 163.486C1064.72 163.479 1066.17 163.667 1067.63 163.752C1069.07 163.889 1070.56 163.916 1071.93 164.219C1077.68 165.084 1082.67 166.491 1087.68 167.794C1092.69 169.088 1097.66 170.383 1102.93 171.121C1105.57 171.463 1108.24 171.705 1110.96 171.747C1113.68 171.757 1116.4 171.529 1119.08 171.146L1119.23 171.375C1114.06 172.631 1108.1 172.868 1102.47 172.333C1096.84 171.776 1091.45 170.721 1086.29 169.543C1081.14 168.36 1076.03 167.122 1070.93 166.508C1069.68 166.254 1068.33 166.298 1067.04 166.186C1065.73 166.13 1064.44 165.966 1063.12 165.99C1060.49 166.1 1057.85 166.003 1055.26 166.379C1044.81 167.359 1034.95 170.164 1026.15 173.706C1017.31 177.254 1009.17 181.395 1001.48 185.788C997.738 188.036 993.924 190.269 990.513 192.686C987.036 195.073 983.554 197.494 979.758 199.771C975.967 202.043 971.812 204.196 966.988 205.899C962.129 207.597 956.822 208.709 952.087 210.133C942.347 212.677 936.234 217.886 934.134 223.733C931.937 229.555 932.624 235.763 935.72 241.63L935.317 241.72Z" fill="#0077B6"/>
<path d="M375.183 286.74C366.328 284.331 356.353 283.744 346.781 284.411C337.142 285.025 327.911 286.889 318.977 289.014C310.02 291.152 301.369 293.703 292.692 296.273C288.409 297.583 283.868 298.792 279.558 300.017C275.364 301.158 271.683 302.848 268.396 304.747C255.094 312.387 247.75 323.147 233.102 330.714C226.032 334.452 219.88 338.75 215.72 343.624C211.463 348.479 209.173 353.776 206.826 359.032L206.489 359.789L205.147 359.488C195.978 357.436 187.668 354.326 178.34 354.25C173.737 354.133 169.272 354.824 164.763 355.731C162.504 356.185 160.201 356.669 157.756 357.077C155.319 357.517 152.564 357.693 150.159 357.812C145.207 358.084 140.157 357.942 135.883 358.448C131.613 358.924 128.113 360.493 124.942 362.379C121.81 364.29 118.864 366.376 116.765 368.602C114.643 370.838 113.509 373.308 112.823 375.9C111.644 381.126 110.719 386.558 110.231 391.835C109.824 397.127 109.961 402.51 112.433 407.533C113.735 410.006 115.622 412.417 118.78 414.213C121.885 416.014 126.293 417.236 130.837 417.077C135.369 416.962 139.767 415.652 143.019 413.768C146.376 411.909 148.595 409.449 149.694 406.859L150.128 406.903C149.322 409.571 147.351 412.197 144.046 414.286C140.857 416.385 136.25 418.059 130.992 418.308C125.708 418.616 120.486 417.331 116.76 415.354C112.942 413.36 110.621 410.724 109.12 408.078C106.209 402.725 105.837 397.191 105.975 391.764C106.156 386.286 107.197 380.999 108.304 375.543C108.991 372.822 110.231 369.992 112.623 367.439C115.015 364.886 118.08 362.665 121.566 360.637C124.995 358.631 129.482 356.645 134.944 356.078C140.268 355.521 145.069 355.753 149.818 355.518C152.267 355.411 154.389 355.303 156.617 354.927C158.854 354.578 161.118 354.111 163.465 353.686C168.121 352.821 173.285 352.09 178.486 352.303C183.659 352.452 188.638 353.375 193.081 354.587C197.559 355.787 201.723 357.158 206.099 358.235L204.421 358.692C207.065 353.454 209.909 348.181 214.298 343.246C218.67 338.291 225.102 334.01 232.016 330.123C246.435 322.627 252.126 311.732 265.721 303.361C269.162 301.314 273.127 299.435 277.756 298.128L290.863 294.373C299.615 291.883 308.439 289.381 317.639 287.287C326.813 285.188 336.513 283.578 346.528 283.136C356.49 282.677 366.86 283.691 375.378 286.53L375.183 286.74Z" fill="#0077B6"/>
<path d="M531.566 202.854C533.873 203.805 536.562 204.457 539.34 204.487C542.112 204.521 544.819 203.973 547.202 203.157C551.933 201.462 555.879 199.111 559.494 196.648C566.683 191.676 572.822 186.223 579.551 180.955C582.899 178.312 586.292 175.673 590.124 173.171C593.969 170.698 598.119 168.206 603.988 166.689C607.173 165.978 609.888 165.773 612.794 165.396L621.352 164.444C627.008 163.862 632.311 162.956 636.851 161.087C641.497 159.293 645.329 156.943 649.484 154.634C653.679 152.396 658.586 150.182 664.646 149.586C670.652 148.917 676.513 149.728 682.236 149.838C687.985 149.984 693.739 149.532 699.152 148.504C710.022 146.444 719.045 142.036 725.468 136.881C731.829 131.689 735.917 125.549 735.97 119.365L735.979 118.207L738.127 118.339C741.972 118.576 745.928 118.483 748.966 117.555C752.067 116.675 753.914 114.864 754.915 112.854C756.842 108.746 756.182 104.17 755.992 99.6355C755.885 97.3461 755.766 95.0323 756.474 92.5939C756.82 91.3894 757.555 90.0602 758.826 88.9412C760.089 87.8149 761.759 86.9084 763.221 86.1339C764.704 85.3472 765.954 84.6337 766.786 83.8152C767.212 83.4096 767.526 82.9772 767.77 82.5178C767.96 82.166 768 81.7042 768.031 81.1423C768.102 78.9702 767.867 76.693 767.584 74.4574L767.065 71.1126C766.955 70.5995 766.844 69.9471 766.671 69.6393C766.334 69.1751 766.131 68.6766 765.661 68.2442C764.093 66.4239 761.272 64.958 757.989 63.8365C751.345 61.5765 743.23 60.604 735.261 59.8686C719.129 58.5077 702.572 58.6836 686.089 58.4417V58.1974C702.532 57.8016 719.067 57.1272 735.678 58.173C743.926 58.7251 752.355 59.6218 759.978 62.0138C763.73 63.2183 767.274 64.914 769.395 67.1936C769.998 67.7384 770.321 68.3541 770.755 68.9405C771.176 69.7224 771.211 70.2159 771.393 70.8243C771.677 71.9799 771.863 73.121 772.026 74.2669C772.336 76.5636 772.607 78.8285 772.558 81.2033C772.85 83.9569 769.471 86.4393 766.436 87.9419C763.367 89.5032 761.559 90.9276 761.077 93.0142C760.496 95.0739 760.594 97.3315 760.616 99.5793C760.647 104.09 761.325 108.754 759.008 113.494C757.83 115.8 755.305 118.314 750.898 119.529C746.601 120.78 741.853 120.736 737.618 120.418L739.775 119.392C739.425 126.104 734.699 132.483 727.638 137.731C720.586 142.982 710.926 147.253 699.653 149.322C694.04 150.348 688.056 150.771 682.178 150.578C676.322 150.468 670.484 149.777 664.978 150.453C659.406 151.027 654.852 153.163 651.008 155.445C647.145 157.776 643.345 160.344 638.556 162.357C633.865 164.483 627.828 165.673 622.127 166.379L613.596 167.412C610.85 167.774 607.767 168.099 605.57 168.629C600.848 169.897 596.826 172.225 593.052 174.551C589.296 176.924 585.858 179.497 582.465 182.089C575.715 187.291 569.177 192.649 561.43 197.545C557.563 199.976 553.319 202.341 548.03 203.951C545.39 204.733 542.334 205.242 539.282 205.095C536.212 204.968 533.479 204.098 531.282 203.033L531.566 202.854Z" fill="#0077B6"/>
</g>
</svg>
