<svg width="80" height="80" viewBox="0 0 80 80" fill="none" xmlns="http://www.w3.org/2000/svg">
<path d="M40.1874 79.1229C62.1288 79.1229 79.9159 61.5642 79.9159 39.9045C79.9159 18.2447 62.1288 0.686035 40.1874 0.686035C18.246 0.686035 0.458984 18.2447 0.458984 39.9045C0.458984 61.5642 18.246 79.1229 40.1874 79.1229Z" fill="white"/>
<path d="M46.4115 21.9879C46.0462 22.2696 45.6428 22.4108 45.4476 22.8734C45.3072 23.2058 45.6514 23.8906 45.4774 24.0866C45.2825 24.3062 44.2948 24.0953 43.9752 24.2381C43.6163 24.3986 42.7363 25.3038 43.5557 25.4891C43.2532 25.8016 42.9183 26.3438 43.4286 26.6231C44.1409 27.0131 44.776 26.2432 45.0412 25.7128C45.193 25.4088 45.679 24.3208 46.227 24.852C46.5916 25.2056 46.0233 25.58 45.8296 25.791C45.4093 26.2489 45.5012 26.414 46.0233 26.7272C45.6749 26.851 44.7344 27.1978 45.4588 27.5633C45.7537 27.712 46.7075 27.5955 47.0429 27.5633C47.5376 27.5156 48.2109 27.3455 48.4701 26.8722C48.7207 26.4145 48.5084 25.9414 47.9491 25.9383C47.9072 25.1898 47.6926 25.1506 47.2842 24.5576C46.9941 24.1364 47.2444 24.0429 47.2563 23.6022C47.2725 23.0104 46.8265 23.1248 46.6711 22.7698C46.5395 22.4684 46.9931 21.78 46.4115 21.9879Z" fill="#1F8CCC"/>
<path d="M64.824 12.5091C64.3871 12.4184 64.4813 12.7088 64.2305 12.8747C64.0461 12.9966 63.7828 12.9813 63.5551 13.1211C62.8828 13.5339 63.0501 14.5448 63.0817 15.2291C63.111 15.8602 63.0794 16.513 63.6634 16.8725C64.1539 17.1744 65.0765 17.4372 65.6072 17.1861C65.4911 16.7505 64.7967 16.478 64.5384 16.0763C64.2726 15.6628 63.6379 14.7654 63.8335 14.2396C63.9832 13.8367 65.9509 13.1068 64.824 12.5091Z" fill="#1F8CCC"/>
<path d="M39.9863 37.8653C39.892 37.9875 39.7292 38.0732 39.5857 38.1254C39.4817 38.1632 39.347 38.2058 39.2883 38.3094C39.1459 38.5607 39.8492 38.3296 39.9115 38.2967C40.0279 38.2354 40.2243 38.1155 40.2797 37.988C40.2966 37.9492 40.323 37.8583 40.2828 37.824C40.205 37.7573 40.0481 37.8545 39.9863 37.8653Z" fill="#1F8CCC"/>
<path d="M39.0566 37.7306C38.9757 37.7548 38.7432 37.8144 38.7434 37.9265C38.7436 38.0122 38.9259 37.9841 38.9823 37.969C39.0687 37.9462 39.2387 37.8469 39.2843 37.7684C39.3434 37.6674 39.1147 37.7181 39.0566 37.7306Z" fill="#1F8CCC"/>
<path d="M37.5757 37.553C37.5424 37.6637 37.4881 37.8831 37.6462 37.9181C37.7856 37.9489 37.9003 37.8032 37.9617 37.7001C37.9951 37.6442 38.0136 37.5913 37.9729 37.538C37.9101 37.4558 37.7892 37.4802 37.7019 37.4948C37.6443 37.5046 37.615 37.5347 37.5757 37.553Z" fill="#1F8CCC"/>
<path d="M48.8313 33.5276C48.5661 33.708 48.7311 33.9096 48.9507 33.7771C49.1702 33.6446 49.0276 33.3939 48.8313 33.5276Z" fill="#1F8CCC"/>
<path d="M48.402 34.1757C48.3346 34.192 48.3013 34.2634 48.347 34.327C48.397 34.397 48.643 34.362 48.6664 34.2876C48.6887 34.2166 48.6352 34.1483 48.5657 34.1464C48.5226 34.145 48.4762 34.1546 48.402 34.1757Z" fill="#1F8CCC"/>
<path d="M51.7801 32.6453C51.6323 32.6439 51.4869 32.7771 51.4971 32.9286C51.503 33.0176 51.6066 33.1595 51.6673 33.219C51.7313 33.2815 51.7758 33.2469 51.8429 33.1917C51.9693 33.0872 52.0192 32.7202 51.7801 32.6453Z" fill="#1F8CCC"/>
<path d="M51.6412 33.6156C51.3891 33.6158 51.3775 33.8867 51.4227 34.0847C51.4412 34.1667 51.4812 34.3305 51.5698 34.3626C51.6638 34.3967 51.8339 34.3582 51.9068 34.2955C52.0617 34.162 51.9717 33.78 51.8546 33.647C51.8068 33.593 51.6937 33.5425 51.6412 33.6156Z" fill="#1F8CCC"/>
<path d="M53.699 35.2692C53.4838 35.2697 53.1259 35.2539 53.3151 35.5542C53.3967 35.6836 53.5326 35.7734 53.6507 35.8676C53.7406 35.9397 53.8251 36.0161 53.9122 36.0915C53.9808 36.1509 53.9991 36.1681 54.055 36.0769C54.149 35.9235 54.0864 35.6731 53.9955 35.53C53.931 35.4283 53.8066 35.2469 53.699 35.2692Z" fill="#1F8CCC"/>
<path d="M47.2884 21.4476C47.1299 21.6405 47.27 22.1139 47.4214 22.2774C47.607 22.478 47.7817 22.1341 47.8572 21.9471C47.9433 21.7333 48.0278 21.293 47.7241 21.2324C47.5744 21.2026 47.3355 21.3146 47.2884 21.4476Z" fill="#1F8CCC"/>
<path d="M32.1135 5.99839C31.9357 5.51914 31.3383 4.92147 30.8548 4.7979C30.0863 4.60126 29.4066 5.24967 28.7114 5.23933C27.711 5.22453 26.368 4.77041 25.9287 6.03504C25.6924 5.62133 24.9072 5.91875 24.5819 6.05995C23.5219 6.51971 23.6024 7.16953 24.0369 8.07166C23.4543 8.42735 22.6511 8.00588 22.0209 8.03008C21.4779 8.05099 20.905 8.26759 20.4393 8.55186C19.9935 8.82391 19.9131 8.93997 20.3481 9.2543C21.2213 9.8851 22.7846 9.77773 23.7999 9.95745C24.2799 10.0423 25.2637 10.1127 24.5683 9.39456C24.2642 9.08022 23.2775 9.34522 23.1262 9.0868C22.8277 8.57723 24.0077 8.76165 24.1954 8.80841C24.8849 8.98014 24.9584 9.00598 25.3863 8.52414C25.7452 8.12006 25.8539 8.22249 26.3342 7.9993C26.7535 7.80431 27.264 7.28511 27.6072 7.91567C27.3644 8.16281 27.017 8.52038 27.0969 8.91389C27.2002 9.4211 27.7257 9.34475 28.2072 9.38657C29.077 9.46245 29.2802 9.61915 29.2086 10.5323C29.1717 11.0038 29.0808 10.8375 28.8102 11.2853C28.626 11.5905 28.6636 12.0883 28.8907 12.3667C29.1517 12.6866 29.4721 12.5927 29.5275 13.0296C29.5561 13.2545 29.3376 13.8294 29.1596 13.9736C28.8224 14.2468 28.3695 14.147 28.0165 14.5642C27.6331 15.0176 27.4089 15.9172 27.8326 16.3983C27.3514 17.0561 27.2102 19.397 28.5689 19.026C28.7445 19.7799 29.4825 20.5695 30.2624 20.0555C31.4716 19.2584 31.514 17.1506 33.1166 16.738C33.6661 16.5966 34.0157 16.8304 34.499 16.4693C34.985 16.1063 35.2301 15.4424 35.7649 15.1527C36.6535 14.6709 37.7866 15.3247 38.679 14.868C39.6907 14.3504 39.5353 13.8188 39.5548 12.8823C39.8159 12.8452 40.5065 12.6728 40.6648 12.4047C40.7338 12.2877 40.6331 12.1092 40.6717 12.0375C40.7447 11.9024 40.7852 11.8876 40.8973 11.7356C41.2302 11.2829 41.6339 11.106 41.1795 10.4738C41.9075 10.1694 41.6707 9.96521 41.5368 9.35156C41.4492 8.95054 41.5577 9.16668 41.7833 8.76941C41.9137 8.53964 41.9716 8.3423 41.7733 8.09398C42.2797 7.97252 44.0049 8.1459 43.9833 7.53508C43.9606 6.9003 42.2343 7.15402 41.7745 7.03115C41.73 6.15227 42.0051 5.9803 40.9839 5.6124C40.2543 5.34951 39.3075 5.36291 38.5469 5.46487C38.0693 5.529 37.6145 5.79166 37.1297 5.73034C36.5667 5.65915 36.1595 5.31803 35.5486 5.53887C35.6047 5.75923 35.9358 6.09824 35.6906 6.30052C35.4324 6.5136 34.7513 6.05619 34.5105 5.97302C33.6547 5.67795 33.1059 5.80505 32.1135 5.99839Z" fill="#1F8CCC"/>
<path d="M12.4346 11.7914C12.6293 11.6152 13.5522 11.1712 13.8085 11.391C13.9677 11.5278 13.8542 12.1525 13.8708 12.3484C14.3892 11.5015 14.7604 10.8968 15.6993 10.3733C16.0372 10.1849 17.4025 9.28325 17.1791 10.3031C17.2645 10.2103 17.4178 10.1746 17.4901 10.1196C17.5806 10.5408 17.2298 10.9306 17.156 11.3368C17.0615 11.8574 17.2459 12.0418 16.7528 12.3019C16.4511 12.4609 15.541 12.549 15.4508 12.9891C15.339 13.5357 16.3763 13.6391 16.75 13.6025C18.3592 13.4446 17.6322 11.5748 18.0518 10.578C18.5484 9.39836 19.8164 10.0839 20.628 10.3733C21.8319 10.8025 23.1799 10.721 23.9624 11.8924C24.1723 12.2067 24.4219 12.6935 24.3605 13.0844C24.3048 13.4387 24.0866 13.5202 24.2294 13.9151C24.4693 14.5784 25.1542 14.5957 25.0029 15.3736C24.9277 15.7596 24.6423 16.1071 24.2765 16.3075C23.8241 16.5555 23.692 16.4371 23.5654 15.9412C23.515 15.7441 23.3708 14.6606 22.9971 15.3849C22.7525 15.8592 23.8408 17.1001 22.9862 17.3496C22.5323 17.4821 22.4683 16.8036 22.1394 16.8814C21.8329 16.954 22.0456 17.5552 22.0287 17.7614C21.0045 18.143 20.6194 16.7503 20.6042 16.0063C20.2703 15.9882 19.4295 16.3288 19.5016 15.7352C19.5665 15.2009 20.4576 15.4027 20.8103 15.3226C21.6125 15.1401 22.4797 13.8355 21.9469 13.0685C21.6991 12.7116 21.1346 12.4741 20.7148 12.6639C20.1441 12.9219 20.5516 13.625 20.2362 14.0841C19.8164 14.6958 19.205 14.4395 18.6601 14.6845C18.1589 14.9098 18.483 15.0795 18.5427 15.593C18.7179 17.0989 17.0384 15.9868 16.1817 16.2184C15.4658 16.412 13.9453 16.8936 13.635 17.5606C13.3237 18.2297 13.5157 19.5652 14.0036 20.0631C14.4132 20.481 14.8475 20.5656 15.0893 21.1696C15.3294 21.7689 14.65 22.9623 15.0167 23.4484C15.5915 24.2098 15.7916 22.2228 15.8623 21.9773C16.0836 21.2072 17.1184 21.4365 17.4356 20.5609C17.6082 20.0844 17.2862 19.4849 17.4837 19.0686C17.6255 18.7691 18.0649 18.8294 18.2257 18.5919C18.3911 18.3476 18.2698 18.025 18.4466 17.7574C18.6443 17.4581 19.2291 17.0881 19.6106 17.1417C20.0063 17.1971 20.1151 17.5289 20.414 17.7596C20.6625 17.9513 20.8272 17.7802 20.864 18.252C20.8976 18.681 20.0151 20.1493 21.0225 19.7546C21.4761 19.577 21.6373 18.8936 22.1858 18.8644C22.5364 19.6402 22.241 20.5235 22.429 21.3347C22.5476 21.846 22.7465 22.3151 23.1321 22.6647C23.4564 22.9586 24.0759 23.1827 24.074 23.716C24.0721 24.2852 23.3331 24.6376 23.5133 25.2952C23.6425 25.7672 24.0835 25.8962 24.0942 26.4666C24.1178 27.7263 22.2015 26.9066 21.8874 26.2046C21.6285 25.6262 22.3341 25.0149 22.6116 24.5505C21.8403 24.5712 21.3319 24.8014 20.5054 24.6308C20.0796 24.543 18.8483 24.5352 19.1322 25.3753C19.2086 25.6016 19.7693 25.7695 19.9154 25.9939C20.0694 26.23 20.2867 27.0194 20.191 27.3036C19.9495 28.0199 18.4287 27.6285 17.7997 27.8405C17.1879 28.0467 16.893 28.3406 16.6036 28.8467C16.1898 29.57 16.1626 29.1998 15.4151 29.3793C14.4974 29.5996 14.5496 30.8614 14.1735 31.5202C13.6466 32.4432 12.5943 32.8574 12.0238 33.7598C11.377 34.7827 11.7925 35.5864 11.8022 36.6501C11.8049 36.9304 11.8487 37.3937 11.4291 37.3023C10.9619 37.2006 10.847 36.0076 10.7325 35.6608C10.5776 35.1912 10.3908 34.8057 9.84862 34.7479C9.5083 34.7115 9.03899 34.8445 9.00543 35.2112C8.46021 34.9464 8.20961 34.5073 7.55158 34.8254C6.80216 35.1877 6.43923 36.141 6.3269 36.9156C6.20219 37.7747 6.09177 40.0186 7.28932 40.3651C7.63797 40.4659 7.76315 40.2138 7.96115 39.9544C8.1613 39.6923 8.41785 39.0962 8.8317 39.1202C9.34456 39.1498 9.29292 39.7453 9.20368 40.1372C9.09587 40.6094 8.65488 41.1458 8.8436 41.6647C9.03495 42.1908 9.38502 41.91 9.74557 42.144C10.4807 42.6209 9.98046 43.8996 10.2165 44.5941C10.3831 45.0839 10.5976 45.0581 11.0607 45.0593C11.6649 45.0607 11.9917 45.2136 12.3679 45.6254C12.5659 45.457 12.5141 45.2965 12.6028 45.1034C12.827 44.6155 13.0574 44.3296 13.604 44.131C14.6755 43.7422 14.253 44.6469 14.9929 45.0654C15.6564 45.4405 16.7195 44.9911 17.4537 45.1619C18.19 45.3332 18.1372 45.8789 18.5054 46.3923C19.4533 47.7137 21.5599 47.772 22.1544 49.5004C22.2558 49.7955 22.3105 50.1147 22.1968 50.4288C22.1204 50.64 21.7993 50.8388 21.7698 51.0472C21.7208 51.3918 22.1439 51.8647 22.5109 51.8321C23.0914 51.7806 22.9417 50.9976 23.6811 51.2558C24.2637 51.4595 24.4141 51.903 24.6321 52.3856C25.2744 52.0567 26.1635 52.4488 26.7347 52.7554C27.1174 52.9609 27.4896 53.326 27.8539 53.4987C27.9686 53.553 28.0667 53.6084 28.1526 53.6406C28.3558 53.7172 28.5489 53.5508 28.7937 53.7334C29.3901 54.1772 29.0312 55.1747 28.7352 55.6833C28.4465 56.179 28.0857 56.3843 27.6002 56.6681C27.2416 56.8777 27.2216 56.8185 27.1538 57.2566C27.0046 58.2201 27.447 59.6158 26.758 60.4536C26.3282 60.9763 25.4074 60.7165 24.9179 61.1838C24.6185 61.4697 24.5923 62.0124 24.5683 62.3922C24.5288 63.0214 24.4329 63.5016 24.1437 64.0755C23.7613 64.8343 23.1889 65.2457 22.4804 65.5913C22.6689 66.1023 23.005 66.6447 22.5002 67.0251C22.287 67.1855 22.0057 67.116 21.8146 67.2974C21.4623 67.6314 21.7056 67.9852 21.7677 68.4448C21.8348 68.9407 21.7996 69.4789 21.9307 69.9601C22.0692 70.4685 22.5138 70.5413 22.7796 70.9874C22.9674 71.3025 22.9774 71.6718 23.2103 72.0134C23.4445 72.3566 23.8727 72.6413 23.876 73.0734C23.2341 73.2703 22.4181 72.3839 21.994 71.9485C21.1868 71.1202 20.6901 70.16 20.1508 69.2182C19.7914 68.5907 19.0518 68.4732 18.6427 67.9082C18.3109 67.4498 18.2431 66.7723 18.1158 66.2296C17.9668 65.5941 17.8457 64.9769 17.6184 64.36C17.3257 63.565 16.8792 62.7961 16.7455 61.9546C16.615 61.133 16.814 60.194 16.6041 59.3952C16.438 58.7633 15.882 58.2746 15.4265 57.8458C14.4313 56.9089 13.8066 55.8607 13.1585 54.6931C12.6452 53.7682 11.6987 53.1811 11.5881 52.0943C11.5093 51.3209 11.2615 50.4155 11.3755 49.6409C11.5214 48.6502 12.1661 47.8044 12.0652 46.7496C11.971 45.7652 11.218 46.1049 10.4814 45.9459C9.85171 45.8099 9.67727 45.5543 9.38431 44.9406C9.1775 44.5076 9.33052 43.976 9.0992 43.5477C8.89025 43.1603 8.39381 43.0022 8.1087 42.6771C7.86024 42.3942 7.7572 41.8285 7.4095 41.6335C7.11344 41.4674 6.61201 41.599 6.27597 41.4561C5.69243 41.208 5.17291 40.6278 4.94182 40.0616C4.56652 39.1418 4.64481 38.075 4.45776 37.1158C4.28593 36.235 3.61981 35.4795 3.35493 34.6114C2.66382 32.3467 2.75758 29.337 3.65836 27.1422C3.92776 26.4863 4.35733 25.8995 4.63672 25.2454C5.22288 23.8741 5.28357 22.3673 5.83855 20.9906C6.28192 19.8902 6.77098 18.346 7.63249 17.5087C7.63297 17.5089 10.8022 13.2679 12.4346 11.7914Z" fill="#1F8CCC"/>
<path d="M19.056 7.79578C18.6052 7.86508 18.069 8.15945 17.886 8.60089C17.7389 8.9561 17.8199 9.16637 18.1854 9.20208C18.7378 9.25588 19.9772 8.66009 19.9996 8.03611C19.6081 8.01615 19.249 8.13009 18.8701 8.11106C19.0314 7.9748 19.3032 7.84606 19.3665 7.64331C19.3132 7.68348 19.2782 7.6661 19.056 7.79578Z" fill="#1F8CCC"/>
<path d="M22.4584 6.42812C21.3737 6.35975 21.2878 7.45759 22.402 7.36549C23.057 7.31146 22.9872 6.43634 22.4189 6.42812" fill="#1F8CCC"/>
<path d="M39.5532 17.2874C39.2227 16.7767 37.7721 16.5248 37.8992 17.3656C37.9751 17.8689 38.7688 18.7853 39.2186 18.9404C40.1694 19.2683 42.0216 18.8182 42.6154 18.0119C43.2418 17.1613 42.0342 17.1502 41.514 17.1702C41.0264 17.189 40.5806 17.2792 40.1073 17.375C39.7484 17.4479 39.7391 17.3814 39.5532 17.2874Z" fill="#1F8CCC"/>
<path d="M10.746 38.3223C10.4956 38.3974 10.0166 38.5584 9.86686 38.7762C9.66553 39.0691 9.87138 39.0696 10.1372 39.055C10.6498 39.0273 11.742 39.0134 11.9314 39.6423C12.0418 40.0088 11.6192 40.4251 12.2648 40.4904C12.7244 40.5367 13.4885 40.1721 13.7139 40.7383C13.8348 41.0423 13.707 40.8861 13.4764 41.0392C13.2903 41.1628 13.2594 41.2554 13.4245 41.3914C13.5987 41.5349 14.1723 41.6353 14.376 41.6703C14.6799 41.7222 15.2054 41.7217 15.4526 41.5086C16.0183 41.0214 14.7363 40.424 14.3955 40.2818C14.1644 40.1855 13.9764 40.123 13.7289 40.1096C13.529 40.0988 13.356 40.1531 13.2384 40.0222C13.1777 39.9548 13.1239 39.6741 13.0647 39.5787C12.9388 39.3755 12.7774 39.219 12.5709 39.091C12.3524 38.9554 12.1146 38.8591 11.9038 38.7146C11.4452 38.4007 11.1287 38.3516 10.746 38.3223Z" fill="#1F8CCC"/>
<path d="M12.2598 41.0471C12.0009 40.9524 11.6596 41.0997 11.8131 41.3922C11.8791 41.5179 12.2853 41.8243 12.4417 41.8367C12.6946 41.8567 12.841 41.5778 12.7644 41.3687C12.7053 41.2073 12.5052 41.1108 12.3488 41.0471H12.2598Z" fill="#1F8CCC"/>
<path d="M62.3097 60.5843C62.0853 61.1232 61.6186 61.6758 61.0367 61.7906C60.6543 61.8661 60.2121 61.7249 59.8751 61.9405C59.5377 62.1567 59.392 62.6639 59.2135 62.9989C58.9215 63.547 58.5369 64.0173 58.1421 64.4963C57.584 65.1736 57.333 66.3403 58.5876 65.7605C60.0281 65.0947 61.2397 63.9764 62.0979 62.6787C62.3961 62.2278 62.9461 61.5395 63.0039 60.9898C63.0396 60.6517 62.7864 60.2946 62.3097 60.5843Z" fill="#1F8CCC"/>
<path d="M54.5887 9.44799C53.8552 8.72652 52.6267 9.06717 51.6838 9.02136C51.2688 9.00115 50.3166 8.85573 50.1548 9.40665C50.0272 9.84103 50.7162 10.3396 50.9856 10.6048C51.3466 10.96 52.0263 11.8781 52.6191 11.6768C53.2288 11.4698 52.8316 10.8054 53.1374 10.5799C53.4052 10.3823 54.6891 12.6306 54.855 11.2823C54.8992 10.922 54.6291 10.7448 54.621 10.4542C54.6089 10.0395 54.8876 9.83868 54.5887 9.44799Z" fill="#1F8CCC"/>
<path d="M79.4403 34.3837C78.8072 23.4463 69.1521 12.9517 69.1521 12.9517C67.5314 14.1106 69.3137 15.3816 69.5531 16.7503C69.0748 16.5719 67.9398 15.9228 67.4289 16.1723C66.5623 16.5957 67.5707 17.6569 67.7354 18.2346C67.238 17.9489 66.5666 18.1103 66.2063 18.5644C65.1601 18.0786 64.4912 17.7525 63.8481 18.9396C63.6527 18.5301 63.2541 17.9898 62.7558 18.2778C62.7322 18.7535 62.816 19.436 62.489 19.8109C62.157 20.1918 61.6296 19.9672 61.697 20.7582C60.8961 20.0461 60.1743 19.1381 59.3625 18.4321C59.8159 18.4794 60.3445 18.7385 60.7631 18.4046C61.092 18.1425 61.2019 17.2594 60.9618 16.9352C60.6458 16.5085 60.0829 16.7211 59.5936 16.6229C58.7838 16.4604 58.2333 15.8345 57.4199 15.6249C55.2659 15.07 54.5041 16.7984 53.2451 18.1072C51.8527 19.5551 49.9583 19.3033 49.761 21.7388C49.5432 24.4269 50.9607 22.4668 52.1233 22.4102C52.1654 23.2475 53.0269 23.5649 53.2492 24.3573C53.4117 24.9371 53.3517 25.7298 54.2401 24.9336C54.564 24.6435 54.5048 24.2225 54.6692 23.8886C54.9125 23.3943 54.9824 23.6579 55.3061 23.2463C55.9229 22.4621 55.071 22.2481 54.9822 21.6272C54.8708 20.8498 55.6652 20.8996 55.9989 20.2778C56.1909 19.9197 56.4049 18.3062 57.362 18.8226C58.1762 19.2617 56.8963 20.4967 56.743 20.9595C56.5705 21.4813 56.5229 22.2354 56.8923 22.6813C57.4727 23.3824 58.5617 23.0347 59.2633 23.2614C60.057 23.5179 59.9492 24.0437 59.101 24.1247C58.8752 24.1464 58.2892 23.8802 58.0684 24.0411C57.8156 24.2253 57.9406 24.6202 57.8187 24.8925C57.3028 24.6458 56.8432 24.6627 56.5031 25.1389C56.0229 25.8118 56.6062 25.769 55.6614 25.9267C55.0529 26.0282 54.4479 26.2572 53.9165 26.1543C53.3601 26.0467 53.1987 25.7321 52.5521 25.9866C51.9462 25.3699 52.9034 24.1464 52.0552 23.7233C50.9738 24.2568 51.7301 25.2252 51.2598 25.875C51.0364 26.1839 50.4414 25.8971 50.1587 26.0726C49.7165 26.3472 49.9823 26.4156 49.8412 26.8575C49.4488 28.0876 48.7267 27.5984 47.7227 28.0293C47.3914 28.1714 47.3957 28.5248 47.1348 28.6385C46.7407 28.81 46.2136 28.4402 45.8157 28.4317C45.9506 29.433 47.0708 30.0727 46.5039 31.2204C45.4249 31.2836 44.3121 30.9678 43.273 31.3106C42.3853 31.2948 43.2014 31.5899 43.1969 32.0527C43.1919 32.5769 42.7952 33.0049 42.6478 33.4806C43.3558 33.6451 43.1812 34.1986 42.9641 34.6544C43.595 34.84 43.7809 34.9457 44.288 35.3086C44.2614 36.4001 43.5253 36.3654 42.7942 36.8575C42.2725 37.2088 42.4187 37.4244 42.165 37.871C41.8718 38.3872 41.7561 38.3743 41.2578 38.6515C40.0897 39.3015 38.2477 40.355 37.9866 41.7981C37.8679 42.4543 38.1632 43.0539 38.078 43.6987C37.9576 44.6112 37.4293 45.3256 37.9712 46.2346C38.3386 46.851 38.7396 47.3101 38.9955 47.9848C39.2801 48.7347 39.5109 49.3218 40.0305 49.9453C40.7984 50.8674 41.2102 50.4821 42.2464 50.6797C42.7099 50.768 43.0457 51.0399 43.5272 51.0819C44.383 51.1569 45.329 50.7673 46.2017 50.7636C46.5958 50.7619 47.17 50.733 47.5075 50.956C47.9178 51.2273 47.7914 51.6399 48.0577 51.8609C48.7032 52.3966 49.7565 51.3873 49.8429 52.5213C49.9045 53.3297 49.0992 53.8539 49.2486 54.787C49.4609 56.1123 50.1772 57.1774 50.0794 58.6887C50.008 59.7922 49.0485 60.4963 48.8883 61.6289C48.8072 62.2029 49.0216 62.7874 48.9716 63.3416C48.9257 63.8492 48.7403 63.9961 48.5166 64.4528C48.0896 65.3237 48.3516 66.2404 48.2612 67.1698C48.1741 68.0646 47.8995 68.4959 49.0492 68.6583C50.4195 68.8516 51.8115 68.285 52.9112 67.5605C53.598 67.1082 54.0148 66.5195 54.5943 65.9925C54.9115 65.704 55.2175 65.6942 55.5398 65.4724C56.2944 64.9527 56.0852 64.0059 56.8887 63.4245C57.6571 62.8686 58.5413 62.7498 59.0558 61.8154C59.6793 60.6831 59.7064 59.2702 60.444 58.1533C61.1941 57.0174 62.5337 56.0714 63.5635 55.1786C64.2822 54.5554 68.2956 50.9442 65.6368 50.6076C64.9488 50.5204 64.2158 50.6555 63.5418 50.6736C63.5237 50.2298 63.6208 49.681 63.4542 49.2795C63.2891 48.8815 62.865 48.7091 62.7401 48.2658C62.5651 47.6446 62.8702 46.8884 62.746 46.2541C62.6418 45.7222 62.3621 45.4095 62.2674 44.8948C62.1753 44.3948 62.2853 43.9541 62.1087 43.4528C61.9806 43.0893 61.4825 42.5856 61.5489 42.1841C61.6456 41.602 62.0854 41.6938 62.4847 42.0312C63.4233 42.8239 63.6818 44.6563 63.8543 45.764C64.048 47.0084 64.0875 48.2259 64.0868 49.5018C64.9445 49.549 66.4986 49.7214 67.1775 48.9704C67.5212 48.5905 67.3701 47.9818 67.8089 47.7069C68.6968 48.5531 70.1252 47.3153 70.4027 46.3901C70.6671 45.5089 69.7447 44.6126 69.6902 43.7401C68.2325 45.4506 66.5105 42.0249 67.307 41.0006C67.9317 41.9487 68.9531 43.3337 70.2442 42.412C70.3318 43.6156 71.7266 44.038 72.7809 43.9743C72.8264 44.7834 72.7807 45.3609 73.2083 46.0821C73.6001 46.7427 73.7226 46.9793 73.7426 47.7755C73.7643 48.6396 73.6486 49.3338 73.3438 50.1286C73.125 50.6987 72.795 51.2976 72.8842 51.9234C75.3583 52.1945 75.7753 47.2222 77.4664 46.143C78.7679 47.0599 77.2777 50.212 77.0644 51.3906C76.8598 52.5216 76.4338 55.8766 76.9081 54.8258C81.5507 44.54 79.4403 34.3837 79.4403 34.3837ZM62.8338 37.7721C62.735 38.3454 62.2267 39.8231 61.4492 39.8029C61.0951 39.7937 61.022 39.4166 60.7629 39.2759C60.3483 39.0506 59.889 39.2614 59.4687 39.3337C58.5712 39.4881 58.5717 39.1258 58.0196 38.5103C57.6995 38.1534 57.5508 38.1086 57.0303 38.2869C56.3468 38.5209 56.5129 38.8756 56.1954 39.3584C55.7278 40.0698 55.4144 39.2116 54.8146 39.0847C54.1081 38.935 53.8989 39.1533 53.5067 38.4187C53.1882 37.8219 52.7304 37.5184 51.9564 37.4467C52.4069 36.9276 52.1947 36.6423 52.0566 36.1029C51.9786 35.798 52.1925 35.8065 51.8845 35.5821C51.6942 35.4435 51.153 35.436 50.915 35.4231C49.9523 35.3704 49.042 35.4512 48.1279 35.6326C47.3914 35.7787 46.4846 36.2484 45.7255 36.1027C45.397 36.0397 44.838 35.7985 45.29 35.4637C45.5965 35.2368 46.1446 35.5346 46.4796 35.284C46.6289 35.1724 46.6696 34.9191 46.8228 34.7866C46.9637 34.6647 47.1741 34.6541 47.3107 34.539C47.7341 34.1821 47.3695 34.0313 47.4152 33.4987C47.5092 32.4011 49.077 33.0495 49.1125 31.7891C49.5352 31.6207 49.8412 31.905 50.2115 32.0302C50.9007 32.2635 51.3538 31.8996 51.9524 31.6237C52.4031 31.5077 52.4419 32.3567 52.638 32.6664C52.9948 33.2295 53.6659 33.4583 54.0521 33.9702C54.3432 34.356 54.1009 35.2612 54.5612 35.3876C55.2095 35.5659 55.0541 34.7704 55.0731 34.3917C55.2366 34.3818 55.679 34.4648 55.7752 34.3081C56.09 33.7955 52.2941 31.643 53.3544 31.1067C53.7872 30.8877 54.7996 32.0379 55.0405 32.2738C55.4353 32.6603 55.9236 33.1238 56.12 33.6458C56.209 33.8824 56.1916 34.1178 56.2735 34.3579C56.4648 34.9189 56.8301 34.9635 56.8587 35.6324C56.8739 35.9855 56.9808 37.1404 57.6719 36.7758C57.8673 36.6727 57.7887 36.4314 57.9113 36.2589C58.0753 36.028 58.3033 36.0698 58.3475 35.7381C58.4154 35.2302 57.1857 34.8404 57.7814 34.4119C58.1386 34.1551 58.912 34.4483 59.1669 34.7589C59.5013 35.166 59.2702 35.7374 59.5539 36.1288C59.6981 36.3278 59.8804 36.3602 60.1179 36.418C60.4466 36.4979 60.4794 36.4483 60.7495 36.6236C61.2036 36.9179 61.4478 37.1568 62.0556 36.9362C62.221 36.8761 62.6339 36.5075 62.8243 36.632C63.0049 36.7497 62.8688 37.5692 62.8338 37.7721ZM64.762 34.2914C64.4793 35.3011 63.2386 34.8007 62.7189 34.3316C62.4659 34.1032 62.2124 33.7381 61.8183 33.7565C61.3186 33.7797 60.9359 34.496 60.369 34.3341C58.8475 33.8995 60.1917 31.0726 61.449 31.0505C61.7864 31.1022 61.5223 32.3253 61.9897 32.7195C62.4511 33.1085 63.1494 32.9051 62.874 32.2738C62.7134 31.9054 61.8438 31.4454 62.6058 31.0963C63.2534 30.7996 63.6494 31.4628 63.4404 31.9776C63.3576 32.1819 63.0782 32.1805 63.1618 32.4585C63.2098 32.6182 63.7355 32.8729 63.876 32.9671C64.3336 33.2741 64.9464 33.6324 64.762 34.2914Z" fill="#1F8CCC"/>
<mask id="mask0_1_4426" style="mask-type:luminance" maskUnits="userSpaceOnUse" x="0" y="0" width="80" height="80">
<path d="M40.1867 79.1229C62.1281 79.1229 79.9151 61.5642 79.9151 39.9045C79.9151 18.2447 62.1281 0.686035 40.1867 0.686035C18.2453 0.686035 0.458252 18.2447 0.458252 39.9045C0.458252 61.5642 18.2453 79.1229 40.1867 79.1229Z" fill="white"/>
</mask>
<g mask="url(#mask0_1_4426)">
<path d="M10.9556 47.9252L16.3752 42.4943L21.8211 37.089L32.7142 26.2801L43.6637 15.5265L49.139 10.1506L54.641 4.80054L49.2214 10.2319L43.7755 15.637L32.8822 26.4457L21.9327 37.1989L16.4571 42.5749L10.9556 47.9252Z" fill="#1F8CCC"/>
<path d="M10.2168 50.6336L14.898 45.9317L19.5965 41.2472L29.021 31.9049L38.4843 22.6012L43.23 17.9631L47.993 13.3423L43.3123 18.0444L38.6138 22.729L29.189 32.071L19.7253 41.3745L14.9798 46.0125L10.2168 50.6336Z" fill="#1F8CCC"/>
<path d="M17.7615 49.1232C19.1249 47.7087 20.5069 46.3125 21.8915 44.9191L26.0662 40.7592L30.28 36.6378L32.4007 34.5906L34.5393 32.561L32.4833 34.6721L30.4095 36.7656L26.2343 40.9253L22.0202 45.0464C20.6085 46.413 19.1942 47.7773 17.7615 49.1232Z" fill="#1F8CCC"/>
<path d="M8.26489 65.1647C9.94484 63.4377 11.6433 61.729 13.3445 60.023L18.469 54.9254L23.6324 49.8664L26.2278 47.3506L28.8412 44.8523L26.3104 47.4321L23.7618 49.9942L18.637 55.0913L13.4732 60.1501C11.7452 61.8296 10.0141 63.5061 8.26489 65.1647Z" fill="#1F8CCC"/>
<path d="M16.6011 68.9147C18.668 66.8057 20.7532 64.7151 22.8415 62.6272L29.1268 56.3839L35.451 50.1792L38.6269 47.0903L41.8207 44.019L38.7095 47.1716L35.5805 50.3067L29.295 56.5498L22.9705 62.7543C20.8553 64.8156 18.7375 66.8743 16.6011 68.9147Z" fill="#1F8CCC"/>
<path d="M23.3542 69.3312C24.489 68.1424 25.6422 66.9718 26.7984 65.8042L30.2873 62.3213L33.8152 58.877L35.5929 57.1683C36.1917 56.605 36.7845 56.0357 37.3885 55.4773C36.8228 56.0733 36.2462 56.6588 35.6755 57.2499L33.9446 59.0048L30.4555 62.4874L26.9274 65.9315C25.7443 67.0726 24.5585 68.211 23.3542 69.3312Z" fill="#1F8CCC"/>
<path d="M33.6428 68.1334C34.4522 67.2658 35.2802 66.4165 36.111 65.5698C36.9413 64.7229 37.7866 63.8908 38.6239 63.0504C39.4747 62.2237 40.3181 61.3897 41.1758 60.5695L42.4654 59.3427C42.9014 58.9398 43.3317 58.5313 43.7729 58.1335C43.37 58.5691 42.9559 58.9939 42.548 59.4243L41.3053 60.6974C40.4745 61.5438 39.6296 62.3766 38.7921 63.2165C37.9409 64.0428 37.0981 64.8775 36.24 65.6972C35.3823 66.5171 34.5217 67.3344 33.6428 68.1334Z" fill="#1F8CCC"/>
<path d="M36.8091 64.3833C38.6385 62.5088 40.4864 60.6526 42.3373 58.799L47.9102 53.2589L53.5221 47.7573L56.3418 45.0201L59.1793 42.3003L56.4241 45.1014L53.6516 47.8851L48.0784 53.425L42.4663 58.9264C40.5885 60.7532 38.708 62.5774 36.8091 64.3833Z" fill="#1F8CCC"/>
<path d="M40.4495 53.0814C41.0392 52.4309 41.6473 51.7985 42.2579 51.1688C42.8669 50.5373 43.489 49.919 44.1114 49.3004C44.7375 48.6858 45.3641 48.072 46.0038 47.4706L46.9639 46.5694C47.2899 46.275 47.6105 45.975 47.9415 45.6855C47.6483 46.0126 47.3444 46.3288 47.0462 46.6506L46.1333 47.5984C45.5243 48.2298 44.9022 48.8482 44.2796 49.4665C43.6532 50.0809 43.0266 50.695 42.3869 51.2962C41.7491 51.899 41.1084 52.4992 40.4495 53.0814Z" fill="#1F8CCC"/>
<path d="M19.8196 61.1541L23.208 57.7284L26.6138 54.3198L33.4531 47.5298L40.3311 40.7781L43.7841 37.4158L47.2546 34.071L43.8664 37.497L40.4606 40.9057L33.6211 47.6956L26.7428 54.4471L23.2899 57.8092L19.8196 61.1541Z" fill="#1F8CCC"/>
<path d="M24.6731 46.1543C26.2388 44.5401 27.8228 42.9442 29.4097 41.3511L34.1913 36.5921L39.0118 31.8716L41.4359 29.5252L43.8776 27.196L41.5182 29.6064L39.141 31.9994L34.3591 36.758L29.5387 41.4784C27.9249 43.045 26.3083 44.6087 24.6731 46.1543Z" fill="#1F8CCC"/>
<path d="M33.2734 31.7276C34.1445 30.7992 35.0338 29.889 35.9263 28.9817C36.8182 28.074 37.7252 27.1812 38.6238 26.28C39.536 25.3925 40.4411 24.4976 41.3602 23.6168L42.7422 22.2989C43.2091 21.8657 43.6701 21.4266 44.142 20.9985C43.7082 21.4644 43.2636 21.9195 42.8248 22.3804L41.4897 23.7446C40.5975 24.652 39.691 25.5454 38.7919 26.4459C37.8792 27.333 36.9746 28.2283 36.055 29.1088C35.1359 29.9898 34.214 30.8678 33.2734 31.7276Z" fill="#1F8CCC"/>
<path d="M45.2083 20.6749C45.9719 19.8527 46.754 19.0485 47.5388 18.2472C48.3233 17.4453 49.1229 16.6586 49.9142 15.8636C50.7191 15.0819 51.5168 14.2933 52.3286 13.5185L53.5494 12.3596C53.9626 11.9794 54.37 11.5934 54.7881 11.2183C54.4081 11.631 54.0171 12.0332 53.632 12.4411L52.458 13.6463C51.6731 14.4476 50.8742 15.2349 50.0824 16.0297C49.2771 16.8108 48.4801 17.6002 47.6678 18.3745C46.8558 19.1491 46.0412 19.921 45.2083 20.6749Z" fill="#1F8CCC"/>
<path d="M54.5359 16.5713C55.1168 15.9295 55.7161 15.3058 56.3182 14.6848C56.9184 14.062 57.5317 13.4522 58.1452 12.8425C58.7625 12.2366 59.3803 11.6312 60.0112 11.0387L60.9579 10.1504C61.2797 9.86054 61.5957 9.56476 61.9225 9.27979C61.6338 9.60235 61.3342 9.91433 61.0405 10.232L60.1407 11.1665C59.5405 11.7891 58.9272 12.399 58.3134 13.0086C57.6959 13.6143 57.0781 14.2197 56.4472 14.8122C55.8179 15.4063 55.1861 15.9979 54.5359 16.5713Z" fill="#1F8CCC"/>
<path d="M55.7478 22.7696C56.7419 21.7197 57.7545 20.6881 58.7697 19.6591C59.7848 18.6298 60.8148 17.6154 61.8367 16.593C62.8722 15.584 63.9003 14.5676 64.9424 13.5652L66.5091 12.0649C67.0374 11.5709 67.56 11.0712 68.0936 10.5823C67.5983 11.109 67.0921 11.6249 66.5916 12.1464L65.0719 13.693C64.0564 14.7218 63.0268 15.7369 62.0047 16.7588C60.9687 17.7676 59.9414 18.7844 58.8987 19.7864C57.8564 20.7886 56.8114 21.788 55.7478 22.7696Z" fill="#1F8CCC"/>
<path d="M37.3887 71.102C38.4708 69.9654 39.5712 68.8469 40.6745 67.7312C41.7774 66.6151 42.8954 65.5139 44.0052 64.4046L47.3748 61.1165L49.0733 59.4861C49.6457 58.9486 50.2123 58.4056 50.7897 57.873C50.2504 58.443 49.7002 59.0024 49.1559 59.5674L47.5043 61.2443L44.1734 64.5707C43.0496 65.6662 41.9342 66.7699 40.8035 67.8586C39.6731 68.9475 38.54 70.0338 37.3887 71.102Z" fill="#1F8CCC"/>
<path d="M31.7429 72.9249C32.4293 72.1788 33.1342 71.451 33.8417 70.726C34.549 70.0005 35.2713 69.2901 35.9853 68.5712C36.7128 67.8659 37.4334 67.1534 38.1678 66.4549L39.2728 65.4104C39.6474 65.0684 40.016 64.7204 40.3956 64.3835C40.0541 64.7583 39.7019 65.1222 39.3554 65.492L38.2973 66.5827C37.5898 67.3077 36.8679 68.0189 36.1535 68.7373C35.4255 69.4421 34.7056 70.1551 33.9707 70.8533C33.236 71.5515 32.4988 72.2474 31.7429 72.9249Z" fill="#1F8CCC"/>
<path d="M16.9702 79.904C17.8853 78.9323 18.8187 77.9787 19.7549 77.0279C20.6907 76.0767 21.6416 75.1405 22.5843 74.1961C23.5405 73.2651 24.4896 72.327 25.4528 71.4028L26.9007 70.0197C27.3895 69.5649 27.8726 69.1042 28.3664 68.6543C27.9107 69.1418 27.444 69.6187 26.9832 70.1012L25.5822 71.5306C24.646 72.4813 23.6957 73.4182 22.7526 74.3622C21.7959 75.2927 20.8475 76.2315 19.8839 77.1553C18.9205 78.0793 17.9545 79.0007 16.9702 79.904Z" fill="#1F8CCC"/>
<path d="M26.0457 77.9253C26.6125 77.235 27.2306 76.5948 27.861 75.9673C28.4964 75.3448 29.1447 74.7347 29.8444 74.1753C29.2777 74.866 28.6599 75.5059 28.029 76.1332C27.3931 76.7555 26.7449 77.3654 26.0457 77.9253Z" fill="#1F8CCC"/>
<path d="M26.2034 82.7689C26.8809 82.0314 27.577 81.3123 28.2758 80.596C28.9742 79.8792 29.6877 79.1772 30.3929 78.4673C31.1118 77.7707 31.8234 77.0668 32.549 76.3771L33.6409 75.3455C34.011 75.0077 34.3753 74.6642 34.7506 74.3315C34.4137 74.702 34.0657 75.0615 33.7235 75.427L32.6785 76.5049C31.9798 77.2212 31.2668 77.9236 30.5611 78.6334C29.8419 79.3295 29.1308 80.034 28.4047 80.7233C27.6789 81.4131 26.9504 82.1 26.2034 82.7689Z" fill="#1F8CCC"/>
<path d="M32.5347 80.8937C33.2827 80.0869 34.049 79.2982 34.8181 78.5124C35.5868 77.7261 36.3708 76.9548 37.1464 76.1753C37.9355 75.4092 38.7175 74.636 39.5136 73.8767L40.7109 72.7411C41.1162 72.3685 41.5158 71.9905 41.9261 71.623C41.5539 72.0281 41.1707 72.4225 40.7935 72.8226L39.6431 74.0045C38.8739 74.7904 38.0907 75.5621 37.3146 76.3414C36.525 77.107 35.7437 77.8809 34.9471 78.6397C34.1508 79.3988 33.3519 80.1555 32.5347 80.8937Z" fill="#1F8CCC"/>
<path d="M38.1797 78.3417C39.4113 77.0575 40.6612 75.7915 41.9139 74.528L45.6931 70.7588L49.5112 67.0279L51.4341 65.1761L53.3746 63.3418L51.5164 65.2574L49.6406 67.1557L45.8612 70.9247L42.0429 74.6554C40.763 75.8921 39.4808 77.1259 38.1797 78.3417Z" fill="#1F8CCC"/>
<path d="M54.5359 68.7584C55.7675 67.4741 57.0174 66.2082 58.2701 64.9448L62.0494 61.1756L65.8674 57.4446L67.7903 55.5929L69.7308 53.7585L67.8726 55.6742L65.9968 57.5724L62.2174 61.3414L58.3991 65.0719C57.1195 66.3086 55.837 67.5427 54.5359 68.7584Z" fill="#1F8CCC"/>
<path d="M67.2505 55.1649C67.805 54.5491 68.3778 53.9515 68.9535 53.3566C69.5273 52.7599 70.1142 52.1761 70.7013 51.5925C71.2924 51.0127 71.8838 50.4334 72.4881 49.867L73.3953 49.0177C73.7037 48.7407 74.0067 48.4581 74.3203 48.186C74.0448 48.4957 73.7585 48.7945 73.4779 49.0992L72.6176 49.9948C72.0438 50.5915 71.4567 51.1753 70.8695 51.7586C70.2784 52.3382 69.687 52.9175 69.0825 53.484C68.4799 54.052 67.8745 54.6177 67.2505 55.1649Z" fill="#1F8CCC"/>
<path d="M64.9824 65.9461C65.9151 64.957 66.8661 63.9861 67.8197 63.0179C68.7731 62.0493 69.7417 61.0957 70.7019 60.1339C71.6758 59.1855 72.6425 58.23 73.623 57.2884L75.0973 55.8793C75.5949 55.4158 76.0869 54.9464 76.5895 54.4878C76.1249 54.984 75.6494 55.4696 75.1799 55.9608L73.7524 57.4162C72.7986 58.3844 71.8307 59.3384 70.87 60.2997C69.8956 61.2477 68.9297 62.2039 67.9484 63.145C66.9679 64.0866 65.9843 65.0254 64.9824 65.9461Z" fill="#1F8CCC"/>
<path d="M54.6406 72.5084C56.4174 70.6861 58.2126 68.8818 60.0105 67.0803L65.4252 61.6964L70.8789 56.351L73.6195 53.6919L76.3778 51.0503L73.7019 53.7734L71.0081 56.4789L65.5932 61.8625L60.1393 67.2077C58.3144 68.9826 56.4867 70.7547 54.6406 72.5084Z" fill="#1F8CCC"/>
<path d="M43.6667 78.5499C44.4409 77.717 45.2336 76.9023 46.0292 76.0904C46.8243 75.2782 47.6347 74.4806 48.4367 73.6753C49.2523 72.8831 50.0605 72.0839 50.883 71.2985L52.12 70.1238C52.5384 69.7383 52.9511 69.3471 53.3747 68.9666C52.9894 69.3847 52.5929 69.7921 52.2024 70.2051L51.0124 71.4263C50.2168 72.2382 49.4072 73.036 48.6047 73.8411C47.7887 74.6329 46.9809 75.4326 46.1582 76.2175C45.3358 77.0031 44.5104 77.7854 43.6667 78.5499Z" fill="#1F8CCC"/>
<path d="M41.1875 78.3939C42.0938 77.4309 43.0183 76.486 43.9458 75.5439C44.8727 74.6014 45.8149 73.6739 46.7488 72.7381C47.6962 71.8158 48.6365 70.8864 49.5908 69.9707L51.0256 68.6005C51.5101 68.1499 51.9887 67.6935 52.4783 67.248C52.0268 67.7313 51.5646 68.2037 51.1082 68.6821L49.7203 70.0985C48.7928 71.0405 47.8511 71.9687 46.9168 72.904C45.9689 73.8259 45.0293 74.756 44.0745 75.671C43.1202 76.5866 42.163 77.4993 41.1875 78.3939Z" fill="#1F8CCC"/>
<path d="M43.0342 83.4459C43.8436 82.5783 44.6715 81.729 45.5023 80.8823C46.3327 80.0354 47.178 79.2033 48.0152 78.3629C48.866 77.5362 49.7094 76.7022 50.5672 75.882L51.8568 74.6552C52.2928 74.2523 52.7231 73.8438 53.1643 73.446C52.7614 73.8816 52.3475 74.3064 51.9394 74.7368L50.6966 76.0098C49.8658 76.8563 49.021 77.6891 48.1835 78.529C47.3322 79.3555 46.4895 80.19 45.6313 81.0097C44.7734 81.8296 43.9131 82.6469 43.0342 83.4459Z" fill="#1F8CCC"/>
<path d="M50.1047 82.0918C51.1604 80.981 52.2345 79.8886 53.3114 78.799C54.3878 77.7089 55.4797 76.6339 56.563 75.5506L59.8534 72.3405L61.5124 70.7491C62.0716 70.2247 62.6249 69.6947 63.1892 69.1753C62.663 69.7323 62.1261 70.2785 61.5949 70.8306L59.9828 72.4683L56.731 75.7165C55.6336 76.7859 54.5444 77.8635 53.4404 78.9263C52.3363 79.9894 51.2297 81.0496 50.1047 82.0918Z" fill="#1F8CCC"/>
<path d="M48.4688 81.1018C49.3046 80.2082 50.1589 79.3328 51.0159 78.46C51.8727 77.587 52.7444 76.7288 53.6078 75.8626C54.485 75.0098 55.3549 74.1498 56.2388 73.3035L57.5682 72.0377C58.0175 71.6219 58.4608 71.2002 58.9151 70.7893C58.4989 71.2378 58.072 71.6755 57.6505 72.119L56.3682 73.4313C55.511 74.3039 54.64 75.1626 53.7758 76.0285C52.8981 76.8808 52.029 77.7416 51.1447 78.5871C50.2608 79.4334 49.374 80.2768 48.4688 81.1018Z" fill="#1F8CCC"/>
<path d="M57.9646 76.7274C59.3809 75.2609 60.8154 73.8126 62.2529 72.3668L66.5859 68.0506L70.9579 63.7728L73.1576 61.6476L75.3752 59.5398L73.24 61.7289L71.0872 63.9004L66.7537 68.2163L62.3814 72.4937C60.9175 73.9131 59.4503 75.3293 57.9646 76.7274Z" fill="#1F8CCC"/>
<path d="M59.8643 69.852C60.4135 69.1789 61.014 68.5563 61.6268 67.946C62.2446 67.3408 62.8753 66.748 63.5576 66.2061C63.0085 66.8794 62.4083 67.5019 61.795 68.1121C61.1768 68.717 60.5461 69.3097 59.8643 69.852Z" fill="#1F8CCC"/>
<path d="M5.78442 63.8626C6.52361 63.0645 7.28112 62.2846 8.04148 61.5074C8.80137 60.7298 9.57649 59.9672 10.3433 59.1964C11.1236 58.439 11.8969 57.6745 12.6841 56.9239L13.8683 55.8012C14.2693 55.433 14.6644 55.0592 15.0704 54.696C14.7025 55.0968 14.3238 55.4868 13.9509 55.8827L12.8136 57.0517C12.0532 57.8289 11.2788 58.5919 10.5115 59.3625C9.73071 60.1194 8.95821 60.8846 8.17047 61.6347C7.38298 62.3851 6.59286 63.1331 5.78442 63.8626Z" fill="#1F8CCC"/>
<path d="M7.73706 57.7689C8.25635 57.1876 8.79396 56.6248 9.33466 56.0647C9.87322 55.5027 10.4251 54.9537 10.977 54.4047C11.5329 53.8596 12.0891 53.315 12.6584 52.7832L13.5127 51.986C13.8038 51.7264 14.0889 51.461 14.385 51.2065C14.127 51.4988 13.8583 51.7802 13.5953 52.0676L12.7878 52.911C12.249 53.4729 11.6974 54.022 11.1453 54.5708C10.5891 55.1156 10.0329 55.6601 9.46365 56.192C8.89581 56.7255 8.3256 57.2562 7.73706 57.7689Z" fill="#1F8CCC"/>
<path d="M1.51147 59.2272C1.97793 58.6981 2.46294 58.1874 2.95081 57.6792C3.43654 57.1692 3.9356 56.6723 4.4349 56.1755C4.938 55.6826 5.44134 55.1899 5.95801 54.7102L6.73337 53.9913C6.99801 53.7578 7.2567 53.5184 7.52634 53.2898C7.29478 53.556 7.05227 53.8116 6.81571 54.0726L6.08723 54.838C5.60126 55.3478 5.10221 55.8449 4.60291 56.3415C4.09957 56.8342 3.59623 57.3268 3.07956 57.8066C2.5648 58.2877 2.04742 58.7665 1.51147 59.2272Z" fill="#1F8CCC"/>
<path d="M1.93335 55.5815C2.50547 54.9484 3.09591 54.3333 3.68921 53.7211C4.28061 53.107 4.88509 52.5058 5.48981 51.9049C6.09834 51.3077 6.70735 50.7109 7.32945 50.1271L8.26307 49.2518C8.58054 48.9661 8.89206 48.6748 9.21453 48.394C8.93014 48.7124 8.63504 49.0199 8.34565 49.3333L7.45891 50.2549C6.86751 50.869 6.26279 51.47 5.65807 52.0709C5.0493 52.6679 4.44029 53.2646 3.8182 53.8484C3.19777 54.4339 2.57496 55.0168 1.93335 55.5815Z" fill="#1F8CCC"/>
<path d="M0.878418 51.519C1.48552 50.8511 2.11119 50.2013 2.73971 49.5543C3.36775 48.9071 4.01103 48.2746 4.64574 47.634C5.29425 47.0067 5.93539 46.3724 6.5908 45.752L7.57725 44.8247C7.9121 44.5216 8.24123 44.2129 8.58132 43.9148C8.27955 44.2505 7.9666 44.5754 7.6596 44.906L6.72026 45.8798C6.09174 46.5268 5.44918 47.1597 4.81376 47.7998C4.16477 48.4266 3.52411 49.0614 2.86846 49.6814C2.21328 50.3019 1.55525 50.9195 0.878418 51.519Z" fill="#1F8CCC"/>
<path d="M4.41382 50.9463C5.46952 49.8355 6.54356 48.7431 7.62044 47.6535C8.69685 46.5634 9.7885 45.4884 10.872 44.4051L14.1624 41.195L15.8214 39.6036C16.3807 39.0792 16.934 38.5492 17.4983 38.0298C16.9721 38.5868 16.4352 39.133 15.904 39.6851L14.2919 41.3228L11.0401 44.571C9.94271 45.6404 8.85345 46.718 7.74943 47.7808C6.64541 48.8439 5.53878 49.9041 4.41382 50.9463Z" fill="#1F8CCC"/>
<path d="M10.2705 66.3104C11.3702 65.1564 12.4883 64.0205 13.6092 62.8875C14.7297 61.7539 15.8653 60.6354 16.9927 59.5087L20.4149 56.1684L22.1398 54.5119C22.721 53.9659 23.2964 53.4141 23.8826 52.873C23.3345 53.4517 22.7755 54.0197 22.2224 54.5934L20.5444 56.2962L17.1607 59.6745C16.0193 60.7874 14.8862 61.9085 13.738 63.0146C12.5902 64.1211 11.4395 65.2248 10.2705 66.3104Z" fill="#1F8CCC"/>
<path d="M9.74341 70.0606C10.2275 69.5141 10.7301 68.986 11.2353 68.4605C11.7387 67.9331 12.2554 67.4188 12.772 66.9048C13.2927 66.3945 13.8137 65.8845 14.3477 65.3873L15.1495 64.6424C15.4229 64.4002 15.6904 64.1521 15.9689 63.9148C15.7285 64.1897 15.4774 64.454 15.2318 64.7237L14.4772 65.5151C13.9736 66.0423 13.4572 66.5566 12.94 67.0706C12.4191 67.5807 11.8981 68.0907 11.3639 68.5876C10.832 69.0866 10.297 69.5827 9.74341 70.0606Z" fill="#1F8CCC"/>
<path d="M14.0159 68.8628C14.4911 68.325 14.9849 67.8056 15.4814 67.2887C15.9759 66.77 16.4838 66.2644 16.9917 65.7589C17.5036 65.2573 18.0157 64.7559 18.5412 64.2675L19.3296 63.5355C19.5985 63.2975 19.8618 63.0539 20.1359 62.821C19.9001 63.0917 19.6533 63.3515 19.4122 63.617L18.6706 64.3953C18.1759 64.9138 17.668 65.4194 17.1599 65.9247C16.6478 66.4261 16.1356 66.9274 15.6101 67.4156C15.0868 67.9061 14.5606 68.3936 14.0159 68.8628Z" fill="#1F8CCC"/>
<path d="M15.9822 74.0043C16.3232 73.5993 16.6826 73.2123 17.0448 72.8282C17.4051 72.4422 17.7785 72.0691 18.1521 71.6963C18.5296 71.3275 18.9075 70.9589 19.2985 70.6029L19.8854 70.0699C20.0872 69.8984 20.2833 69.721 20.4901 69.5544C20.3214 69.7586 20.1417 69.9522 19.968 70.1514L19.428 70.7307C19.0677 71.1165 18.6943 71.4896 18.3204 71.8624C17.9427 72.2312 17.5648 72.5999 17.1738 72.9555C16.7844 73.3131 16.3925 73.6679 15.9822 74.0043Z" fill="#1F8CCC"/>
<path d="M15.4929 72.7168C15.8839 72.2002 16.3261 71.7336 16.7807 71.2798C17.2402 70.8308 17.7126 70.3943 18.2364 70.0085C17.8457 70.5256 17.4037 70.992 16.9487 71.4456C16.4887 71.8946 16.0163 72.3308 15.4929 72.7168Z" fill="#1F8CCC"/>
<path d="M24.8323 53.0817C25.7209 52.1361 26.6279 51.2086 27.5377 50.2837C28.447 49.3585 29.3716 48.4484 30.2881 47.5301C31.2179 46.6251 32.1406 45.7131 33.0773 44.8147L34.4857 43.4707C34.9614 43.0288 35.4312 42.5813 35.912 42.1443C35.4693 42.6188 35.0159 43.0826 34.5683 43.5522L33.2068 44.9426C32.2969 45.8672 31.3728 46.7781 30.4561 47.6959C29.5258 48.6004 28.6039 49.5131 27.6667 50.411C26.7297 51.309 25.7902 52.2045 24.8323 53.0817Z" fill="#1F8CCC"/>
<path d="M26.7832 47.9252C28.1202 46.5368 29.4758 45.1667 30.834 43.7992L34.9297 39.7175L39.0642 35.6741L41.1454 33.6661L43.2442 31.6755L41.2278 33.7474L39.1935 35.8019L35.0975 39.8833L30.9625 43.9265C29.5776 45.2672 28.1897 46.6054 26.7832 47.9252Z" fill="#1F8CCC"/>
<path d="M46.78 21.4152C47.3698 20.7646 47.9778 20.1322 48.5885 19.5026C49.1975 18.8711 49.8196 18.2525 50.4419 17.6342C51.0681 17.0198 51.6947 16.4057 52.3344 15.8043L53.2944 14.9031C53.6205 14.6087 53.941 14.3087 54.2721 14.0193C53.9789 14.3463 53.675 14.6625 53.3768 14.9844L52.4638 15.9321C51.8548 16.5634 51.2327 17.1819 50.6102 17.8C49.9838 18.4144 49.3572 19.0285 48.7175 19.6297C48.0797 20.2327 47.439 20.833 46.78 21.4152Z" fill="#1F8CCC"/>
<path d="M33.5371 34.8004C34.2235 34.0543 34.9281 33.3265 35.6359 32.6015C36.3432 31.876 37.0655 31.1653 37.7795 30.4467C38.507 29.7414 39.2276 29.0289 39.962 28.3304L41.067 27.2859C41.4416 26.9439 41.8102 26.5959 42.1898 26.259C41.8483 26.6337 41.4961 26.9977 41.1496 27.3674L40.0915 28.4582C39.3837 29.1832 38.6621 29.8944 37.9477 30.6128C37.2197 31.3176 36.4998 32.0308 35.7649 32.7288C35.0302 33.427 34.293 34.1229 33.5371 34.8004Z" fill="#1F8CCC"/>
<path d="M24.3037 39.4357C24.7 38.9761 25.1145 38.5347 25.532 38.0961C25.9475 37.6556 26.3761 37.228 26.8049 36.8007C27.2376 36.3771 27.6707 35.954 28.117 35.5438L28.7867 34.929C29.0161 34.7302 29.2398 34.5256 29.4742 34.3318C29.2779 34.5634 29.0706 34.784 28.8692 35.0105L28.2464 35.6716C27.8309 36.1121 27.4021 36.5397 26.9732 36.9668C26.5403 37.3901 26.1072 37.8132 25.6609 38.2234C25.2164 38.6353 24.7692 39.0445 24.3037 39.4357Z" fill="#1F8CCC"/>
<path d="M19.9778 44.0191C20.3864 43.4852 20.8462 43.0014 21.3181 42.5299C21.7953 42.0636 22.2853 41.6097 22.8267 41.2068C22.4186 41.7413 21.9588 42.225 21.4864 42.696C21.0087 43.1619 20.5187 43.6158 19.9778 44.0191Z" fill="#1F8CCC"/>
<path d="M31.0566 64.7481C31.5709 64.1097 32.1359 63.522 32.7135 62.9464C33.2963 62.3757 33.8918 61.8178 34.5386 61.3105C34.0248 61.9491 33.4596 62.5371 32.8815 63.1122C32.2989 63.6826 31.7032 64.2404 31.0566 64.7481Z" fill="#1F8CCC"/>
<path d="M34.7493 62.6646C35.2333 62.1181 35.736 61.59 36.2412 61.0645C36.7445 60.5371 37.2612 60.0228 37.7779 59.5085C38.2986 58.9983 38.8195 58.4882 39.3536 57.9911L40.1554 57.2461C40.4288 57.0039 40.6963 56.7558 40.9747 56.5186C40.7344 56.7934 40.4833 57.0577 40.2377 57.3274L39.4831 58.1189C38.9795 58.6461 38.463 59.1606 37.9459 59.6744C37.4249 60.1844 36.904 60.6945 36.3697 61.1913C35.8378 61.6906 35.3028 62.1867 34.7493 62.6646Z" fill="#1F8CCC"/>
<path d="M30.002 69.956C30.3754 69.4568 30.7999 69.0076 31.2369 68.5709C31.6788 68.1393 32.1338 67.7202 32.64 67.3518C32.2669 67.8515 31.8423 68.3005 31.4051 68.737C30.9625 69.1685 30.5077 69.5874 30.002 69.956Z" fill="#1F8CCC"/>
<path d="M26.4668 74.6959C26.9283 74.1097 27.4406 73.5738 27.9656 73.0504C28.4956 72.5319 29.0382 72.0261 29.6325 71.571C29.1715 72.1577 28.6591 72.6933 28.1337 73.2165C27.6034 73.7345 27.0606 74.2403 26.4668 74.6959Z" fill="#1F8CCC"/>
<path d="M39.4993 58.9148C40.0714 58.2816 40.6618 57.6666 41.2551 57.0544C41.8465 56.4402 42.451 55.8391 43.0557 55.2381C43.6643 54.6409 44.2733 54.0442 44.8954 53.4604L45.829 52.585C46.1462 52.2994 46.458 52.008 46.7802 51.7273C46.4958 52.0456 46.2007 52.3531 45.9113 52.6665L45.0246 53.5882C44.4332 54.2023 43.8285 54.8032 43.2238 55.4042C42.615 56.0012 42.006 56.5979 41.3839 57.1817C40.7637 57.7674 40.1409 58.3502 39.4993 58.9148Z" fill="#1F8CCC"/>
<path d="M31.7429 58.0297C32.148 57.5615 32.5713 57.1114 32.9976 56.6641C33.4219 56.2149 33.8593 55.7786 34.297 55.3426C34.7384 54.9103 35.1804 54.4785 35.6354 54.0596L36.3184 53.4319C36.5524 53.2287 36.7804 53.0198 37.0193 52.8215C36.8187 53.0574 36.6069 53.2825 36.401 53.5132L35.7649 54.1874C35.3406 54.6366 34.9031 55.0726 34.4652 55.5087C34.0235 55.9407 33.5816 56.3725 33.1266 56.7914C32.6732 57.2119 32.2175 57.6299 31.7429 58.0297Z" fill="#1F8CCC"/>
<path d="M27.0999 62.196C27.35 61.818 27.6517 61.4908 27.9654 61.1755C28.2843 60.8654 28.6158 60.5677 28.9992 60.321C28.7493 60.6993 28.4478 61.0265 28.1337 61.3416C27.8143 61.6512 27.4828 61.9491 27.0999 62.196Z" fill="#1F8CCC"/>
<path d="M24.1462 66.8832C24.4316 66.4704 24.7686 66.1086 25.1175 65.7586C25.4716 65.4137 25.8383 65.0813 26.2567 64.7998C25.9716 65.2128 25.6348 65.5748 25.2857 65.9244C24.9311 66.2691 24.5644 66.6015 24.1462 66.8832Z" fill="#1F8CCC"/>
<path d="M38.9187 72.6126C39.4996 71.9708 40.0989 71.347 40.701 70.7261C41.3012 70.1033 41.9145 69.4934 42.528 68.8838C43.1453 68.2781 43.7631 67.6727 44.394 67.08L45.3408 66.1917C45.6625 65.9018 45.9786 65.606 46.3053 65.321C46.0166 65.6436 45.717 65.9556 45.4233 66.2732L44.5235 67.2078C43.9233 67.8306 43.31 68.4402 42.6963 69.0499C42.0787 69.6555 41.4609 70.2609 40.83 70.8534C40.2007 71.4476 39.5689 72.0391 38.9187 72.6126Z" fill="#1F8CCC"/>
<path d="M33.748 77.8206C34.2797 77.1652 34.8625 76.5598 35.4577 75.9668C36.0579 75.3788 36.6712 74.8037 37.3357 74.2791C36.8043 74.935 36.2214 75.5402 35.626 76.1329C35.0253 76.7205 34.412 77.2958 33.748 77.8206Z" fill="#1F8CCC"/>
<path d="M29.8975 76.7274C30.4467 76.0544 31.0472 75.4318 31.66 74.8214C32.2778 74.2163 32.9085 73.6235 33.5908 73.0815C33.0417 73.7549 32.4415 74.3774 31.8282 74.9875C31.21 75.5925 30.5793 76.185 29.8975 76.7274Z" fill="#1F8CCC"/>
<path d="M60.6025 60.0606C60.9636 59.6356 61.3429 59.229 61.7251 58.8251C62.1054 58.4194 62.4991 58.0266 62.8924 57.6338C63.2901 57.245 63.688 56.8566 64.099 56.481L64.7161 55.9183C64.9279 55.7367 65.134 55.5495 65.3508 55.373C65.1721 55.5871 64.9824 55.7905 64.7985 55.9996L64.2283 56.6088C63.8477 57.0145 63.4543 57.4073 63.0605 57.7997C62.6625 58.1882 62.2649 58.5766 61.8536 58.952C61.445 59.3295 61.0331 59.7042 60.6025 60.0606Z" fill="#1F8CCC"/>
<path d="M54.6406 13.0299C55.1687 12.44 55.7151 11.8684 56.2644 11.2996C56.8118 10.729 57.3725 10.1713 57.9332 9.61354C58.4979 9.05981 59.0629 8.50655 59.641 7.96597L60.5087 7.15569C60.804 6.89163 61.0936 6.62193 61.394 6.36304C61.1317 6.65976 60.8585 6.94543 60.591 7.23722L59.7704 8.09378C59.2228 8.66442 58.6624 9.22215 58.1014 9.77964C57.5364 10.3331 56.9715 10.8866 56.3934 11.427C55.817 11.9692 55.238 12.5086 54.6406 13.0299Z" fill="#1F8CCC"/>
<path d="M54.3774 9.64444C54.8439 9.11537 55.3289 8.60463 55.8168 8.09648C56.3027 7.58644 56.8016 7.08956 57.3009 6.59268C57.804 6.0998 58.3073 5.60715 58.824 5.12742L59.5993 4.40829C59.864 4.17477 60.1227 3.93538 60.3925 3.70679C60.161 3.97296 59.9185 4.22857 59.6819 4.48958L58.9534 5.25498C58.4675 5.76478 57.9684 6.2619 57.4691 6.75854C56.9658 7.25119 56.4624 7.74384 55.9458 8.22357C55.4308 8.70518 54.9134 9.18374 54.3774 9.64444Z" fill="#1F8CCC"/>
<path d="M47.8352 15.4777C48.3845 14.8046 48.9849 14.182 49.5977 13.5717C50.2155 12.9663 50.8462 12.3738 51.5285 11.8318C50.9795 12.5051 50.3793 13.1277 49.766 13.7378C49.1477 14.343 48.517 14.9355 47.8352 15.4777Z" fill="#1F8CCC"/>
<path d="M43.0342 20.8424C43.3195 20.4296 43.6565 20.0678 44.0054 19.7178C44.3595 19.3729 44.7263 19.0405 45.1446 18.759C44.8595 19.172 44.5228 19.5341 44.1734 19.8836C43.8188 20.2281 43.4523 20.5607 43.0342 20.8424Z" fill="#1F8CCC"/>
<path d="M31.2678 31.9362C31.8171 31.2631 32.4175 30.6405 33.0303 30.0302C33.6482 29.4248 34.2791 28.8323 34.9611 28.2903C34.4121 28.9636 33.8119 29.5862 33.1986 30.1963C32.5803 30.8012 31.9497 31.3937 31.2678 31.9362Z" fill="#1F8CCC"/>
<path d="M58.4402 15.5297C58.9369 14.9088 59.4842 14.3384 60.0444 13.7802C60.6097 13.2269 61.1875 12.6864 61.817 12.1965C61.3208 12.8177 60.7732 13.3883 60.2127 13.9461C59.647 14.4991 59.0689 15.0397 58.4402 15.5297Z" fill="#1F8CCC"/>
<path d="M63.5054 11.3633C63.8259 10.9157 64.1979 10.5192 64.582 10.1344C64.9714 9.75495 65.3731 9.38775 65.8269 9.07153C65.5068 9.51931 65.1349 9.91611 64.7503 10.3005C64.3605 10.6796 63.9587 11.0468 63.5054 11.3633Z" fill="#1F8CCC"/>
<path d="M60.0759 16.9359C60.4845 16.4019 60.9443 15.9182 61.4163 15.4467C61.8934 14.9803 62.3834 14.5264 62.9249 14.1235C62.5165 14.658 62.0569 15.1417 61.5845 15.6128C61.1069 16.0786 60.6169 16.5325 60.0759 16.9359Z" fill="#1F8CCC"/>
<path d="M51.9502 39.644C52.2936 39.2364 52.6556 38.8471 53.0202 38.4606C53.3829 38.0721 53.7589 37.6969 54.1349 37.3215C54.515 36.95 54.8953 36.5791 55.2887 36.2208L55.8793 35.684C56.0824 35.5111 56.2796 35.3325 56.4879 35.1648C56.318 35.3701 56.1371 35.5649 55.9619 35.7655L55.4181 36.3486C55.0552 36.737 54.6794 37.1124 54.3032 37.4876C53.9229 37.8588 53.5426 38.2299 53.1492 38.588C52.7575 38.9479 52.3631 39.3052 51.9502 39.644Z" fill="#1F8CCC"/>
<path d="M54.3774 40.9982C54.8791 40.4344 55.3994 39.8889 55.9222 39.3462C56.4432 38.8016 56.9774 38.27 57.5117 37.7383C58.05 37.2107 58.5886 36.6835 59.1403 36.169L59.9682 35.3979C60.2505 35.147 60.5268 34.8903 60.814 34.6443C60.5648 34.9278 60.305 35.2006 60.0506 35.4792L59.2695 36.2966C58.7483 36.8411 58.2143 37.3728 57.6797 37.9042C57.1412 38.4316 56.6026 38.959 56.051 39.4733C55.5012 39.9894 54.9486 40.503 54.3774 40.9982Z" fill="#1F8CCC"/>
<path d="M58.1765 41.2065C58.5904 40.7296 59.0226 40.2708 59.4576 39.8148C59.8907 39.3569 60.337 38.9122 60.7834 38.4672C61.2337 38.0265 61.6844 37.586 62.1483 37.1582L62.8444 36.5173C63.0826 36.3099 63.3149 36.0966 63.5583 35.894C63.3532 36.1341 63.1371 36.3637 62.927 36.5988L62.2777 37.286C61.8446 37.7439 61.3984 38.1886 60.9517 38.6333C60.5012 39.0741 60.0504 39.5146 59.5866 39.9421C59.1244 40.3716 58.6596 40.7982 58.1765 41.2065Z" fill="#1F8CCC"/>
<path d="M48.3625 35.3737C48.9118 34.7006 49.5123 34.078 50.1251 33.4677C50.7429 32.8623 51.3735 32.2698 52.0559 31.7278C51.5068 32.4011 50.9066 33.0237 50.2933 33.6338C49.675 34.2387 49.0441 34.8312 48.3625 35.3737Z" fill="#1F8CCC"/>
<path d="M49.9827 37.4577C50.5498 36.7672 51.1681 36.1268 51.7987 35.4988C52.4344 34.876 53.0831 34.2657 53.7831 33.7061C53.2162 34.397 52.5981 35.0372 51.967 35.6649C51.3309 36.2875 50.6821 36.8976 49.9827 37.4577Z" fill="#1F8CCC"/>
<path d="M38.1272 52.0398C38.3247 51.714 38.5734 51.4389 38.8345 51.1755C39.1008 50.9176 39.3795 50.6718 39.71 50.4773C39.513 50.8036 39.2641 51.0787 39.0027 51.3416C38.7362 51.5991 38.4575 51.8448 38.1272 52.0398Z" fill="#1F8CCC"/>
<path d="M38.0759 56.7794C38.3613 56.3666 38.6983 56.0048 39.0472 55.6548C39.4013 55.3099 39.768 54.9775 40.1864 54.696C39.9013 55.1091 39.5645 55.4711 39.2152 55.8207C38.8606 56.1651 38.4938 56.4977 38.0759 56.7794Z" fill="#1F8CCC"/>
<path d="M35.542 59.8002C35.6515 59.5611 35.8126 59.3729 35.9856 59.1965C36.1638 59.0252 36.3547 58.8664 36.5972 58.7585C36.488 58.9979 36.3271 59.1864 36.1536 59.3623C35.9751 59.5333 35.7843 59.6922 35.542 59.8002Z" fill="#1F8CCC"/>
<path d="M66.5122 53.1857C66.8556 52.7781 67.2174 52.3889 67.5822 52.0024C67.9449 51.614 68.3209 51.2386 68.6969 50.8632C69.077 50.4918 69.4573 50.1208 69.8507 49.7626L70.4414 49.2257C70.6444 49.0528 70.8416 48.8743 71.0499 48.7065C70.88 48.9121 70.6991 49.1066 70.5239 49.307L69.9801 49.8901C69.6172 50.2785 69.2414 50.6539 68.8652 51.0291C68.4849 51.4003 68.1046 51.7715 67.7112 52.1295C67.3192 52.4896 66.9249 52.8467 66.5122 53.1857Z" fill="#1F8CCC"/>
<path d="M69.4675 48.1858C69.9818 47.5475 70.5468 46.9597 71.1246 46.3841C71.7074 45.8135 72.3029 45.2555 72.9497 44.7485C72.4359 45.3871 71.8707 45.9751 71.2926 46.5502C70.7096 47.1204 70.1139 47.6784 69.4675 48.1858Z" fill="#1F8CCC"/>
<path d="M68.7791 44.6381C69.0156 44.2735 69.3038 43.9597 69.6039 43.6578C69.9095 43.3611 70.2272 43.0768 70.597 42.8435C70.3607 43.2084 70.0727 43.5222 69.7722 43.8239C69.4664 44.1201 69.1484 44.4046 68.7791 44.6381Z" fill="#1F8CCC"/>
<path d="M62.6606 48.3419C62.8758 47.9987 63.1421 47.7062 63.4208 47.4257C63.7047 47.1503 64.001 46.8872 64.3489 46.6753C64.1343 47.019 63.8677 47.3115 63.5888 47.5918C63.3046 47.8666 63.0083 48.1297 62.6606 48.3419Z" fill="#1F8CCC"/>
<path d="M64.8242 60.7899C65.1624 60.3252 65.552 59.911 65.9537 59.509C66.3607 59.1122 66.78 58.7276 67.2512 58.394C66.9135 58.8592 66.5239 59.2732 66.1217 59.6749C65.7143 60.0715 65.295 60.456 64.8242 60.7899Z" fill="#1F8CCC"/>
<path d="M68.887 57.1959C69.3484 56.6097 69.8608 56.0738 70.3858 55.5504C70.9158 55.0319 71.4586 54.5261 72.0527 54.071C71.5917 54.6577 71.0793 55.1933 70.5541 55.7165C70.0236 56.2345 69.4807 56.7406 68.887 57.1959Z" fill="#1F8CCC"/>
<path d="M67.0393 65.7899C67.3775 65.3252 67.7671 64.911 68.1688 64.509C68.5757 64.1122 68.9951 63.7276 69.4663 63.394C69.1286 63.8592 68.739 64.2732 68.3368 64.6749C67.9294 65.0714 67.51 65.456 67.0393 65.7899Z" fill="#1F8CCC"/>
<path d="M41.6094 63.9146C42.1237 63.2763 42.6886 62.6885 43.2665 62.1129C43.8493 61.5422 44.4447 60.9843 45.0916 60.4773C44.5778 61.1158 44.0126 61.7039 43.4345 62.279C42.8514 62.8492 42.256 63.4069 41.6094 63.9146Z" fill="#1F8CCC"/>
<path d="M45.7246 59.8523C46.098 59.3528 46.5226 58.9038 46.9595 58.4671C47.4015 58.0355 47.8565 57.6164 48.3627 57.248C47.9895 57.7477 47.565 58.1967 47.1278 58.6332C46.6854 59.0645 46.2306 59.4834 45.7246 59.8523Z" fill="#1F8CCC"/>
<path d="M21.9824 48.6025C22.1095 48.346 22.288 48.1404 22.4786 47.9466C22.6745 47.7582 22.883 47.5818 23.1431 47.4568C23.0162 47.7136 22.8377 47.9194 22.6469 48.1127C22.4505 48.3009 22.2423 48.4771 21.9824 48.6025Z" fill="#1F8CCC"/>
<path d="M30.8989 41.9877C31.3252 41.4363 31.8023 40.9352 32.2921 40.4463C32.7869 39.9626 33.2945 39.4913 33.8535 39.071C33.4275 39.6229 32.9504 40.124 32.4604 40.6124C31.9651 41.0957 31.4575 41.567 30.8989 41.9877Z" fill="#1F8CCC"/>
<path d="M20.0833 37.3528C20.6554 36.7196 21.2458 36.1046 21.8391 35.4923C22.4305 34.8782 23.035 34.277 23.6397 33.6761C24.2482 33.0789 24.8573 32.4822 25.4793 31.8984L26.413 31.023C26.7302 30.7373 27.042 30.446 27.3642 30.1653C27.0798 30.4836 26.7847 30.7911 26.4953 31.1045L25.6086 32.0262C25.0172 32.6403 24.4127 33.2412 23.8077 33.8422C23.199 34.4389 22.59 35.0359 21.9679 35.6197C21.3477 36.2051 20.7246 36.788 20.0833 37.3528Z" fill="#1F8CCC"/>
<path d="M15.2292 38.9151C16.1003 37.9867 16.9896 37.0765 17.8818 36.1692C18.7738 35.2615 19.6808 34.3687 20.5794 33.4675C21.4916 32.58 22.3967 31.6851 23.3158 30.8043L24.6978 29.4864C25.1647 29.0532 25.6257 28.6141 26.0976 28.186C25.6637 28.6519 25.2192 29.107 24.7803 29.5679L23.4452 30.9321C22.553 31.8394 21.6465 32.7329 20.7474 33.6336C19.8348 34.5207 18.9302 35.416 18.0106 36.2966C17.0917 37.1773 16.1698 38.0553 15.2292 38.9151Z" fill="#1F8CCC"/>
<path d="M24.99 30.7379C25.6059 30.0613 26.2404 29.4028 26.8777 28.7473C27.5145 28.0914 28.1666 27.4502 28.8101 26.8009C29.4675 26.1652 30.1174 25.5222 30.7816 24.893L31.7812 23.9526C32.1205 23.6453 32.4539 23.3321 32.7986 23.0298C32.4923 23.3697 32.175 23.6991 31.8637 24.0341L30.9111 25.0208C30.2738 25.6763 29.6224 26.3181 28.9784 26.967C28.3206 27.6025 27.6711 28.246 27.0067 28.8746C26.3422 29.5035 25.6754 30.1296 24.99 30.7379Z" fill="#1F8CCC"/>
<path d="M29.4749 23.6029C29.5667 23.3811 29.7102 23.2101 29.8656 23.051C30.0263 22.8972 30.1995 22.7557 30.4247 22.6653C30.333 22.8873 30.1898 23.0583 30.0339 23.2171C29.8725 23.3705 29.6993 23.512 29.4749 23.6029Z" fill="#1F8CCC"/>
<path d="M19.8713 30.2694C20.0336 29.9781 20.2474 29.7378 20.4732 29.5094C20.7043 29.2862 20.9478 29.0753 21.2431 28.9153C21.0813 29.2068 20.8675 29.4472 20.6412 29.6753C20.4099 29.8982 20.1664 30.1092 19.8713 30.2694Z" fill="#1F8CCC"/>
<path d="M12.0103 39.4877C12.6086 38.8285 13.2257 38.1874 13.8451 37.5491C14.4644 36.9103 15.0988 36.2866 15.725 35.6548C16.3647 35.0363 16.997 34.4106 17.6436 33.7989L18.6168 32.8845C18.9473 32.5859 19.2719 32.2815 19.6077 31.9878C19.3102 32.319 19.0018 32.6397 18.6993 32.966L17.7731 33.9267C17.1534 34.565 16.5196 35.1892 15.893 35.8207C15.2528 36.4388 14.621 37.0649 13.9741 37.6764C13.3275 38.2882 12.678 38.8971 12.0103 39.4877Z" fill="#1F8CCC"/>
<path d="M33.8013 24.1235C34.421 23.3811 35.0916 22.689 35.7749 22.0093C36.4631 21.3346 37.1642 20.6726 37.9165 20.061C37.2973 20.8039 36.6264 21.4958 35.9429 22.1752C35.2544 22.8497 34.5533 23.5117 33.8013 24.1235Z" fill="#1F8CCC"/>
<path d="M41.7678 14.1756C42.3135 13.5683 42.8776 12.9793 43.4444 12.3931C44.0094 11.8051 44.5875 11.23 45.1658 10.6551C45.7481 10.084 46.3307 9.51335 46.9262 8.95539L47.8203 8.11927C48.1244 7.84652 48.4229 7.56836 48.732 7.30054C48.4609 7.60571 48.1789 7.90032 47.9026 8.20056L47.0556 9.08319C46.4907 9.67123 45.9123 10.2463 45.334 10.821C44.7517 11.3919 44.1691 11.9625 43.5734 12.5202C42.9796 13.0801 42.383 13.6369 41.7678 14.1756Z" fill="#1F8CCC"/>
<path d="M45.7246 12.561C46.3443 11.8186 47.015 11.1265 47.6982 10.4468C48.3865 9.7721 49.0876 9.11006 49.8399 8.49854C49.2206 9.24139 48.5497 9.93326 47.8662 10.6127C47.1778 11.2872 46.4766 11.9492 45.7246 12.561Z" fill="#1F8CCC"/>
<path d="M45.3027 7.14427C45.8749 6.51113 46.4653 5.89608 47.0586 5.28385C47.65 4.66974 48.2545 4.06855 48.8592 3.4676C49.4677 2.87064 50.0767 2.27368 50.6988 1.68987L51.6324 0.814521C51.9497 0.528845 52.2614 0.23753 52.5837 -0.0432129C52.2995 0.275119 52.0042 0.582644 51.7148 0.895807L50.8283 1.81744C50.2369 2.43132 49.6322 3.03251 49.0275 3.63346C48.4187 4.23042 47.8097 4.82714 47.1876 5.41095C46.5672 5.99687 45.9441 6.57973 45.3027 7.14427Z" fill="#1F8CCC"/>
<path d="M50.3152 6.46712C50.8468 5.81143 51.4297 5.20625 52.0249 4.61328C52.6251 4.02525 53.2384 3.45014 53.9028 2.92554C53.3714 3.58146 52.7886 4.18665 52.1931 4.77938C51.5925 5.36694 50.9792 5.94229 50.3152 6.46712Z" fill="#1F8CCC"/>
<path d="M39.322 13.2891C39.7804 12.706 40.2897 12.1732 40.8116 11.6528C41.3385 11.1374 41.8782 10.6346 42.4692 10.1824C42.0113 10.7659 41.5017 11.2985 40.9796 11.8187C40.4525 12.3339 39.9127 12.8366 39.322 13.2891Z" fill="#1F8CCC"/>
<path d="M30.4243 21.5195C30.803 21.0774 31.1999 20.6533 31.5997 20.2321C31.9976 19.809 32.4086 19.3988 32.8199 18.9888C33.2352 18.5826 33.6505 18.1769 34.0791 17.7841L34.7226 17.1954C34.9432 17.0051 35.1581 16.8094 35.3837 16.624C35.1962 16.8467 34.9977 17.0589 34.8049 17.2767L34.2085 17.9119C33.8104 18.335 33.3994 18.7452 32.9881 19.1549C32.5729 19.5609 32.1573 19.9666 31.7287 20.3594C31.3018 20.7539 30.8722 21.1457 30.4243 21.5195Z" fill="#1F8CCC"/>
<path d="M33.1685 22.7693C33.753 22.0617 34.3884 21.4044 35.0364 20.7593C35.6894 20.1193 36.3553 19.4918 37.0726 18.9153C36.4886 19.6234 35.8529 20.2807 35.2047 20.9254C34.5514 21.5648 33.8853 22.1923 33.1685 22.7693Z" fill="#1F8CCC"/>
<path d="M24.6213 24.7485C25.1356 24.1102 25.7006 23.5224 26.2784 22.9469C26.8613 22.3762 27.4567 21.8183 28.1036 21.311C27.5897 21.9496 27.0245 22.5376 26.4467 23.1127C25.8634 23.6831 25.2677 24.2409 24.6213 24.7485Z" fill="#1F8CCC"/>
<path d="M25.3589 27.5606C25.6971 27.0957 26.0866 26.6817 26.4884 26.2798C26.8953 25.883 27.3147 25.4984 27.7859 25.1648C27.4482 25.63 27.0586 26.0439 26.6564 26.4456C26.2492 26.8424 25.8299 27.227 25.3589 27.5606Z" fill="#1F8CCC"/>
<path d="M1.08936 47.6648C1.73168 46.9621 2.39257 46.2778 3.05631 45.596C3.71958 44.914 4.39784 44.2468 5.06801 43.5714C5.75174 42.9096 6.4281 42.2405 7.11849 41.5853L8.15754 40.6058C8.51 40.2854 8.85675 39.9593 9.21444 39.644C8.89506 39.9971 8.56474 40.3394 8.24012 40.6874L7.24796 41.7131C6.58422 42.3946 5.90643 43.0625 5.23603 43.7372C4.55182 44.3988 3.87617 45.0684 3.18506 45.7231C2.49466 46.3783 1.80117 47.0307 1.08936 47.6648Z" fill="#1F8CCC"/>
<path d="M2.25122 43.7068C2.76551 43.0685 3.33049 42.4807 3.90832 41.9051C4.49115 41.3345 5.08659 40.7765 5.73343 40.2693C5.21962 40.9078 4.65441 41.4959 4.07634 42.071C3.49351 42.6412 2.89783 43.1991 2.25122 43.7068Z" fill="#1F8CCC"/>
<path d="M0.773438 41.7276C1.35793 41.02 1.99335 40.3626 2.64139 39.7175C3.29442 39.0776 3.96031 38.4501 4.6776 37.8735C4.09358 38.5816 3.45792 39.239 2.80965 39.8836C2.15614 40.5233 1.49025 41.1506 0.773438 41.7276Z" fill="#1F8CCC"/>
<path d="M9.53076 38.7065C10.1379 38.0386 10.7635 37.3888 11.3921 36.7418C12.0201 36.0946 12.6634 35.4621 13.2981 34.8215C13.9466 34.1942 14.5877 33.5599 15.2431 32.9395L16.2296 32.0122C16.5644 31.7091 16.8936 31.4004 17.2337 31.1023C16.9317 31.438 16.6189 31.7629 16.3119 32.0935L15.3726 33.0673C14.7441 33.7143 14.1015 34.3472 13.4661 34.9874C12.8171 35.6141 12.1765 36.2489 11.5208 36.8689C10.8656 37.4896 10.2074 38.1072 9.53076 38.7065Z" fill="#1F8CCC"/>
<path d="M6.41309 38.2428C6.80124 37.791 7.20796 37.3576 7.61753 36.9267C8.02497 36.494 8.44572 36.0744 8.86672 35.6548C9.29153 35.2392 9.71681 34.8239 10.1549 34.4214L10.8127 33.8184C11.0381 33.6234 11.2578 33.4227 11.4884 33.2329C11.2961 33.4606 11.0928 33.6774 10.8953 33.8999L10.2844 34.5492C9.87673 34.9817 9.45598 35.4016 9.03498 35.8209C8.60994 36.2363 8.18489 36.6516 7.74652 37.0541C7.30982 37.4581 6.87073 37.8596 6.41309 38.2428Z" fill="#1F8CCC"/>
<path d="M-0.334717 38.2377C0.0703355 37.7695 0.493714 37.3194 0.919947 36.8721C1.34428 36.4229 1.78169 35.9866 2.21935 35.5506C2.66081 35.1185 3.10275 34.6865 3.55778 34.2676L4.24081 33.6396C4.47451 33.4364 4.70274 33.2276 4.94144 33.0293C4.74081 33.2652 4.529 33.4902 4.32315 33.7209L3.68725 34.3952C3.26292 34.8441 2.82526 35.2804 2.38761 35.7164C1.9459 36.1485 1.50396 36.5803 1.04894 36.9992C0.595572 37.4199 0.139827 37.8379 -0.334717 38.2377Z" fill="#1F8CCC"/>
<path d="M0.245117 34.8525C0.47763 34.4918 0.761785 34.182 1.05784 33.8841C1.35937 33.5914 1.67327 33.3111 2.03882 33.0818C1.80654 33.4429 1.52263 33.7525 1.2261 34.0502C0.92433 34.3424 0.610426 34.6227 0.245117 34.8525Z" fill="#1F8CCC"/>
<path d="M22.51 24.2278C23.0821 23.5946 23.6726 22.9796 24.2659 22.3673C24.8573 21.7532 25.4618 21.152 26.0665 20.5511C26.675 19.9539 27.284 19.3572 27.9061 18.7734L28.8397 17.898C29.157 17.6123 29.4687 17.321 29.791 17.0403C29.5068 17.3586 29.2115 17.6661 28.9221 17.9795L28.0353 18.9012C27.4439 19.5153 26.8395 20.1162 26.2345 20.7172C25.6257 21.3141 25.0167 21.9109 24.3946 22.4947C23.7744 23.0801 23.1514 23.663 22.51 24.2278Z" fill="#1F8CCC"/>
<path d="M21.7722 21.832C22.1156 21.4244 22.4776 21.0351 22.8422 20.6486C23.2049 20.2603 23.5809 19.8849 23.9569 19.5095C24.337 19.138 24.7173 18.7671 25.1107 18.4088L25.7014 17.872C25.9044 17.6991 26.1017 17.5205 26.3099 17.3528C26.14 17.5583 25.9591 17.7529 25.784 17.9535L25.2402 18.5366C24.8772 18.9249 24.5014 19.3004 24.1252 19.6755C23.7449 20.0467 23.3646 20.4179 22.9712 20.776C22.5795 21.1359 22.1851 21.493 21.7722 21.832Z" fill="#1F8CCC"/>
<path d="M14.2803 20.8941C14.6889 20.3602 15.1487 19.8764 15.6206 19.4049C16.0978 18.9386 16.5878 18.4847 17.1292 18.0818C16.7208 18.6163 16.2613 19.1 15.7889 19.571C15.3112 20.0369 14.8212 20.4908 14.2803 20.8941Z" fill="#1F8CCC"/>
<path d="M24.9368 14.1239C25.3454 13.5899 25.8052 13.1059 26.2771 12.6347C26.7543 12.1683 27.2443 11.7144 27.7857 11.3115C27.3773 11.846 26.9178 12.3297 26.4454 12.8008C25.9677 13.2666 25.4777 13.7203 24.9368 14.1239Z" fill="#1F8CCC"/>
<path d="M25.4673 16.4123C25.7693 15.983 26.1229 15.6048 26.4885 15.2383C26.8593 14.877 27.2427 14.5281 27.6777 14.2302C27.3759 14.6597 27.0225 15.0382 26.6565 15.4042C26.2855 15.7653 25.9021 16.1141 25.4673 16.4123Z" fill="#1F8CCC"/>
<path d="M21.8247 20.3215C22.3214 19.7006 22.869 19.1301 23.429 18.5717C23.9942 18.0184 24.572 17.4779 25.2015 16.988C24.7053 17.6094 24.1577 18.1798 23.5972 18.7378C23.0315 19.2906 22.4537 19.8312 21.8247 20.3215Z" fill="#1F8CCC"/>
<path d="M41.0823 5.47779C41.5966 4.83949 42.1615 4.25169 42.7391 3.67611C43.322 3.10546 43.9174 2.5475 44.5642 2.04028C44.0504 2.67883 43.4852 3.26686 42.9072 3.84197C42.3243 4.41238 41.7289 4.97034 41.0823 5.47779Z" fill="#1F8CCC"/>
<path d="M43.5615 5.84212C44.0932 5.18643 44.676 4.58125 45.2712 3.98828C45.8714 3.40025 46.4847 2.82514 47.1492 2.30054C46.6177 2.95646 46.0349 3.56165 45.4395 4.15438C44.8388 4.74194 44.2255 5.31729 43.5615 5.84212Z" fill="#1F8CCC"/>
<path d="M36.3335 5.47775C36.7069 4.97852 37.1315 4.52933 37.5684 4.09259C38.0103 3.66079 38.4651 3.24191 38.9716 2.87354C38.5984 3.37323 38.1741 3.82219 37.7367 4.25869C37.2942 4.69002 36.8392 5.10914 36.3335 5.47775Z" fill="#1F8CCC"/>
<path d="M38.7085 6.05049C39.1485 5.5475 39.6071 5.06261 40.0686 4.58053C40.5281 4.09657 41.0008 3.62577 41.4734 3.15497C41.9501 2.68816 42.4273 2.22158 42.9173 1.76793L43.6529 1.08804C43.9042 0.867442 44.1498 0.641204 44.4064 0.425537C44.1879 0.678793 43.9587 0.921242 43.7352 1.16933L43.0465 1.8955C42.587 2.37922 42.1143 2.85026 41.6414 3.32083C41.1645 3.7874 40.6876 4.25421 40.1973 4.70763C39.7092 5.16316 39.218 5.61587 38.7085 6.05049Z" fill="#1F8CCC"/>
<path d="M34.3284 4.12362C34.6894 3.69886 35.0687 3.29196 35.4509 2.88811C35.8313 2.48239 36.2249 2.08958 36.6183 1.69678C37.0159 1.30797 37.4139 0.919626 37.8249 0.543971L38.442 -0.0186882C38.6538 -0.20029 38.8599 -0.387532 39.0767 -0.563965C38.8979 -0.349708 38.7083 -0.146491 38.5243 0.0625981L37.9543 0.671773C37.5738 1.0775 37.1804 1.4703 36.7865 1.86287C36.3886 2.25145 35.9909 2.63979 35.5797 3.01521C35.1708 3.39274 34.7589 3.76723 34.3284 4.12362Z" fill="#1F8CCC"/>
<path d="M30.3713 4.90506C30.7623 4.38845 31.2045 3.92188 31.6591 3.46799C32.1186 3.01904 32.591 2.58253 33.1148 2.19678C32.7241 2.71386 32.2821 3.1802 31.8271 3.63385C31.3673 4.08257 30.8949 4.51884 30.3713 4.90506Z" fill="#1F8CCC"/>
<path d="M26.5193 5.26985C26.8575 4.80492 27.247 4.39097 27.6488 3.98901C28.0557 3.59221 28.4751 3.20763 28.9463 2.87402C28.6086 3.33919 28.219 3.75314 27.8168 4.15487C27.4094 4.55143 26.99 4.93601 26.5193 5.26985Z" fill="#1F8CCC"/>
<path d="M21.0859 7.19631C21.4382 6.78001 21.8087 6.38204 22.1823 5.98688C22.5538 5.58985 22.9387 5.20574 23.3235 4.82162C23.7124 4.44151 24.1015 4.06186 24.5037 3.6949L25.1074 3.14516C25.315 2.96802 25.5165 2.78501 25.729 2.61304C25.5546 2.82283 25.3695 3.02182 25.19 3.22668L24.6331 3.8227C24.2614 4.21973 23.8768 4.60384 23.4917 4.98772C23.1026 5.3676 22.7135 5.74725 22.3113 6.11421C21.9108 6.48282 21.5076 6.84861 21.0859 7.19631Z" fill="#1F8CCC"/>
<path d="M12.7131 13.3193C13.1758 12.794 13.6567 12.2871 14.1408 11.7829C14.6227 11.2766 15.118 10.7837 15.6132 10.2906C16.1125 9.80149 16.6121 9.31283 17.1247 8.83686L17.8941 8.12361C18.1568 7.89197 18.4136 7.65445 18.6814 7.42798C18.4517 7.69228 18.2113 7.94577 17.9767 8.20513L17.2541 8.96466C16.772 9.4707 16.277 9.96382 15.7815 10.4567C15.282 10.9456 14.7824 11.4345 14.2698 11.9102C13.7588 12.3876 13.2453 12.8626 12.7131 13.3193Z" fill="#1F8CCC"/>
<path d="M-0.281006 29.123C0.132852 28.6461 0.565036 28.1873 0.999836 27.7313C1.43297 27.2734 1.87919 26.8287 2.32566 26.3837C2.77593 25.943 3.22667 25.5025 3.69051 25.0747L4.38662 24.4338C4.62484 24.2264 4.85735 24.0131 5.10057 23.8105C4.89543 24.0506 4.67934 24.2802 4.4692 24.5153L3.81997 25.2025C3.38684 25.6602 2.94061 26.1051 2.49391 26.5498C2.04341 26.9906 1.59266 27.4311 1.12882 27.8586C0.666894 28.2881 0.202106 28.7147 -0.281006 29.123Z" fill="#1F8CCC"/>
<path d="M-0.756592 33.2381C-0.260153 32.7753 0.252944 32.3323 0.76866 31.8925C1.28247 31.4506 1.80818 31.0227 2.3339 30.5952C2.86318 30.1718 3.3927 29.7489 3.93411 29.3402L4.7466 28.7275C5.0229 28.5299 5.29397 28.3262 5.57479 28.134C5.328 28.3673 5.07145 28.5889 4.82037 28.8167L4.05001 29.4802C3.53596 29.9221 3.01049 30.3499 2.48454 30.7772C1.95502 31.2004 1.4255 31.6232 0.884084 32.032C0.344093 32.4427 -0.198038 32.8503 -0.756592 33.2381Z" fill="#1F8CCC"/>
<path d="M5.41553 57.6648C5.61306 57.339 5.86175 57.0639 6.12282 56.8005C6.38913 56.5426 6.66781 56.2968 6.99837 56.1023C6.80132 56.4286 6.55239 56.7037 6.29108 56.9666C6.02453 57.2241 5.74561 57.4698 5.41553 57.6648Z" fill="#1F8CCC"/>
<path d="M6.26001 61.3104C6.66863 60.7764 7.12842 60.2927 7.60035 59.8212C8.07751 59.3548 8.56752 58.901 9.10894 58.498C8.70056 59.0325 8.24101 59.5162 7.7686 59.9873C7.2912 60.4534 6.80095 60.907 6.26001 61.3104Z" fill="#1F8CCC"/>
<path d="M30.5833 53.5503C31.1501 52.86 31.7682 52.2198 32.3986 51.5923C33.034 50.9698 33.6823 50.3597 34.382 49.8003C33.8153 50.491 33.1975 51.1309 32.5666 51.7582C31.931 52.3805 31.2825 52.9907 30.5833 53.5503Z" fill="#1F8CCC"/>
<path d="M54.8513 7.61343C55.2073 7.13135 55.6141 6.69978 56.0334 6.28043C56.458 5.86601 56.8951 5.46428 57.3837 5.11353C57.0282 5.59584 56.6212 6.02741 56.2016 6.44653C55.7768 6.86024 55.3397 7.26197 54.8513 7.61343Z" fill="#1F8CCC"/>
<path d="M60.6025 9.33181C60.8001 9.00596 61.0488 8.73086 61.3098 8.4675C61.5761 8.20955 61.8548 7.96381 62.1854 7.76929C61.9883 8.09561 61.7394 8.37071 61.4781 8.6336C61.2113 8.89108 60.9326 9.13682 60.6025 9.33181Z" fill="#1F8CCC"/>
<path d="M48.9961 75.5811C49.3343 75.1162 49.7239 74.7023 50.1256 74.3003C50.5325 73.9035 50.9519 73.5189 51.4231 73.1853C51.0854 73.6505 50.6958 74.0644 50.2936 74.4662C49.8864 74.863 49.4671 75.2475 48.9961 75.5811Z" fill="#1F8CCC"/>
</g>
<path d="M79.8331 39.9045C79.819 37.3431 79.5668 34.7816 79.043 32.2742C78.5075 29.7706 77.739 27.3144 76.699 24.9756C75.6705 22.6326 74.3991 20.3989 72.9186 18.3165C71.44 16.2329 69.762 14.2933 67.9105 12.5379C66.0592 10.7813 64.0306 9.21972 61.8918 7.83715C61.3466 7.50731 60.8116 7.16173 60.2594 6.84481C59.699 6.54198 59.1488 6.22106 58.5809 5.93304C58.0086 5.65418 57.4467 5.3537 56.8662 5.09175C56.2808 4.84108 55.7056 4.56691 55.1123 4.33504C52.7469 3.39038 50.2976 2.65082 47.7956 2.15605C45.2927 1.66974 42.7449 1.39158 40.1879 1.37044C35.0765 1.30724 29.9391 2.21431 25.1608 4.09C22.7714 5.02432 20.4722 6.19381 18.307 7.57568C16.1478 8.96576 14.1256 10.5706 12.2869 12.3615C8.61717 15.951 5.68233 20.2775 3.74084 25.0017C1.77912 29.7212 0.86049 34.8314 0.915703 39.9045C0.956398 42.443 1.24389 44.9732 1.77888 47.4477C2.31601 49.9215 3.0928 52.3409 4.0971 54.6615C6.1057 59.3026 9.02508 63.5478 12.6498 67.0894C16.2758 70.6288 20.605 73.4558 25.3157 75.3505C27.6718 76.2944 30.1152 77.0248 32.6088 77.5114C35.1026 77.9998 37.6446 78.2352 40.1879 78.2462C42.7315 78.2545 45.2761 78.0219 47.7737 77.5447C50.2716 77.0671 52.7208 76.3452 55.0854 75.4109C55.6787 75.1823 56.2539 74.9109 56.8398 74.6633C57.4205 74.4044 57.9826 74.107 58.5557 73.8309C59.1238 73.5453 59.674 73.2262 60.2349 72.9255C60.7875 72.6105 61.323 72.267 61.8687 71.9393C64.0111 70.5663 66.0392 69.0066 67.8921 67.2541C71.5919 63.7484 74.6307 59.5159 76.6862 54.8288C77.726 52.4907 78.4966 50.0362 79.0332 47.5335C79.5594 45.0267 79.8157 42.466 79.8331 39.9045ZM79.9997 39.9045C80.0104 42.4775 79.7612 45.0505 79.276 47.5802C78.8028 50.1135 78.0587 52.5958 77.1065 55C76.1445 57.4008 74.9491 59.7158 73.5381 61.9018C72.1252 64.0867 70.4914 66.1386 68.6677 68.0188C66.8412 69.8951 64.8304 71.6085 62.6498 73.0897C62.0965 73.4471 61.5522 73.8204 60.9898 74.165C60.4189 74.4953 59.8577 74.8444 59.277 75.1592C58.688 75.4581 58.1088 75.7783 57.5105 76.0595C56.9069 76.3294 56.3129 76.6229 55.7001 76.8733C50.819 78.9367 45.5003 79.9685 40.1879 80C34.8747 79.9984 29.5488 78.9762 24.6505 76.9334C19.7497 74.9008 15.2717 71.904 11.5418 68.183C7.81135 64.4628 4.83153 60.0139 2.86195 55.1668C0.878815 50.3237 -0.0652763 45.0944 0.00350171 39.9045C0.0391996 37.3086 0.327401 34.7184 0.869533 32.1838C0.999474 31.5492 1.1732 30.9238 1.3229 30.294C1.48211 29.6662 1.68987 29.0514 1.86908 28.4296C2.05589 27.8098 2.29007 27.2046 2.49807 26.5919C2.71583 25.9823 2.97952 25.3896 3.21798 24.7877C5.25467 20.024 8.21926 15.6566 11.9047 11.9842C13.7455 10.1463 15.7622 8.47781 17.9258 7.01372C20.0831 5.54094 22.3904 4.27513 24.8052 3.24402C29.6337 1.17897 34.8968 0.0682188 40.1877 0.00149837C45.4762 -0.0443132 50.7928 0.960486 55.6732 2.99898C56.286 3.24637 56.88 3.53674 57.4841 3.80362C58.0828 4.08178 58.6623 4.39917 59.252 4.69519C59.833 5.00764 60.3944 5.35487 60.9658 5.68307C61.5286 6.0256 62.0734 6.39679 62.6272 6.75224C64.8114 8.22385 66.8214 9.9358 68.6496 11.8077C70.4743 13.6844 72.1119 15.7318 73.5246 17.9157C74.9358 20.1003 76.1314 22.4139 77.0936 24.8137C78.0456 27.2171 78.7917 29.698 79.2662 32.2303C79.7538 34.7593 80.007 37.3316 79.9997 39.9045Z" fill="white"/>
<path d="M43.3792 36.3096C43.201 36.3345 43.0568 36.4534 42.9706 36.6019C42.8814 36.7501 42.8311 36.9198 42.7916 37.0903C42.7086 37.4319 42.6822 37.789 42.5377 38.1327C42.3678 38.4687 42.0912 38.7292 41.7854 38.9277C41.4791 39.1267 41.1531 39.2881 40.8235 39.4331C40.1719 39.7248 39.4839 39.9748 38.9734 40.4343C38.719 40.6603 38.5403 40.9566 38.4898 41.2857C38.4408 41.4504 38.4648 41.5961 38.5174 41.7593C38.5695 41.9186 38.6473 42.0932 38.6738 42.283C38.7366 42.6558 38.6545 43.0266 38.5774 43.3684C38.5098 43.7201 38.3846 44.0638 38.2644 44.3943C38.1447 44.7265 38.0436 45.0639 38.0119 45.4102C37.9765 45.7567 38.0588 46.1051 38.2421 46.403C38.4251 46.7014 38.6645 46.9682 38.8849 47.2492C39.1062 47.529 39.3128 47.8264 39.4696 48.149C39.6293 48.4687 39.7606 48.8 39.9408 49.1009C40.1188 49.4016 40.3542 49.6676 40.6514 49.8499C41.2476 50.219 41.973 50.3252 42.6753 50.3787C43.3849 50.426 44.0996 50.3952 44.8148 50.3569C45.523 50.3125 46.2451 50.2124 46.9804 50.2631C47.346 50.2906 47.7215 50.3498 48.0666 50.5176C48.1523 50.5599 48.2377 50.6026 48.3155 50.6602C48.3943 50.7095 48.479 50.7758 48.5438 50.854C48.6766 51.0095 48.7444 51.1824 48.8415 51.3013C48.9388 51.4265 49.0547 51.4892 49.2187 51.5087C49.3798 51.5322 49.5607 51.52 49.7568 51.5484C49.8544 51.5632 49.9603 51.591 50.0562 51.6525C50.1506 51.7164 50.2161 51.7878 50.2789 51.8774C50.3981 52.0606 50.4034 52.2944 50.3539 52.4788C50.2594 52.857 50.02 53.149 49.8953 53.4587C49.8682 53.5374 49.8237 53.6114 49.8094 53.6943L49.7589 53.9415C49.7499 54.1104 49.7377 54.2802 49.7613 54.452C49.8287 55.1401 50.1066 55.8075 50.2494 56.509C50.3191 56.8602 50.3527 57.2246 50.2937 57.5826C50.2256 57.9407 50.0493 58.2635 49.8215 58.5395L49.8032 58.5245C50.0157 58.2402 50.1706 57.9181 50.2197 57.5714C50.2601 57.2239 50.209 56.875 50.1318 56.5342C49.9726 55.851 49.664 55.1983 49.5762 54.4708C49.5478 54.2903 49.5559 54.105 49.5631 53.9203L49.613 53.6452C49.6278 53.5529 49.6737 53.4685 49.7032 53.3797C49.7637 53.1984 49.866 53.0511 49.9426 52.8941C50.0226 52.7398 50.0938 52.5836 50.1299 52.4276C50.1673 52.2713 50.1525 52.1219 50.0769 52.0033C50.0378 51.9474 49.9795 51.8865 49.9253 51.851C49.8703 51.8158 49.7991 51.7951 49.7199 51.7834C49.5604 51.7594 49.3791 51.7721 49.1844 51.7463C49.0873 51.7329 48.9838 51.7089 48.8862 51.656C48.7875 51.6022 48.713 51.5304 48.6482 51.4512C48.5221 51.2914 48.4569 51.1265 48.3541 51.0119C48.3046 50.9529 48.247 50.9083 48.1742 50.8627C48.108 50.8134 48.0328 50.7767 47.9578 50.7398C47.6554 50.5937 47.3072 50.5385 46.9607 50.507C46.2603 50.4501 45.5489 50.5392 44.8255 50.5772C44.107 50.6099 43.3828 50.6268 42.6596 50.5641C41.9432 50.4983 41.1993 50.3632 40.5784 49.9566C40.2688 49.7557 40.0258 49.4651 39.8511 49.1507C39.6757 48.835 39.5498 48.5014 39.3934 48.1849C39.2423 47.8661 39.0429 47.5737 38.8258 47.2931C38.6112 47.011 38.3625 46.7523 38.1704 46.4443C37.975 46.1382 37.8839 45.7647 37.9134 45.4038C37.9343 45.0425 38.0283 44.6908 38.1378 44.3525C38.2485 44.0126 38.3577 43.6832 38.4134 43.3353C38.4822 42.9873 38.5403 42.6453 38.4784 42.3135C38.4548 42.1505 38.3846 41.9976 38.3242 41.8211C38.2623 41.6513 38.2304 41.4293 38.2844 41.2502C38.3077 41.1591 38.3113 41.0621 38.3525 40.9761C38.391 40.8894 38.426 40.8004 38.4689 40.7162L38.6331 40.4841C38.6938 40.4125 38.7647 40.3502 38.8301 40.2833C39.3977 39.7887 40.0984 39.5524 40.749 39.2681C41.0758 39.1262 41.3992 38.9803 41.6986 38.798C41.9968 38.6188 42.2631 38.3749 42.4232 38.0822C42.5639 37.7716 42.6131 37.4129 42.7126 37.0706C42.7612 36.8988 42.8209 36.7255 42.923 36.5725C43.0213 36.4187 43.19 36.3005 43.3752 36.2866L43.3792 36.3096Z" fill="white"/>
<path d="M61.8093 42.0309C61.9538 41.8904 62.1206 41.7588 62.3281 41.6938C62.5333 41.6271 62.782 41.6515 62.9726 41.7687C63.1658 41.8817 63.3072 42.0499 63.4222 42.2233C63.5378 42.3976 63.6266 42.5849 63.698 42.7761C63.8355 43.1609 63.9117 43.5575 63.9926 43.9494L64.2337 45.1266C64.307 45.5182 64.3886 45.9176 64.3779 46.3306C64.3705 46.7368 64.3324 47.1355 64.2972 47.5302C64.2618 47.9244 64.2249 48.3167 64.2503 48.7051C64.276 49.0903 64.3712 49.4768 64.6216 49.7923L64.6047 49.8088C64.2891 49.5423 64.1278 49.1268 64.0654 48.7253C64.0078 48.3186 64.0155 47.9103 64.0443 47.51C64.0738 47.1094 64.1309 46.715 64.1542 46.3233C64.1785 45.9373 64.133 45.5431 64.1047 45.1444C64.069 44.7481 64.0133 44.3527 63.9174 43.9663C63.8198 43.5803 63.6773 43.206 63.5145 42.8496C63.3496 42.5005 63.1732 42.1345 62.8741 41.9226C62.726 41.8211 62.5442 41.7746 62.3586 41.8134C62.173 41.8484 61.9957 41.9428 61.8248 42.049L61.8093 42.0309Z" fill="white"/>
<path d="M50.2515 23.2422C50.0012 22.7012 49.9136 22.081 50.0093 21.4791C50.0638 21.1795 50.1685 20.8826 50.3446 20.6218C50.5155 20.3575 50.7842 20.1538 51.0645 20.0303C51.3444 19.9025 51.6304 19.8207 51.8867 19.6851C52.1445 19.5505 52.3775 19.3663 52.5838 19.1566C52.7918 18.947 52.9703 18.7116 53.1519 18.4764C53.3349 18.2422 53.5174 18.007 53.7095 17.7787C54.0926 17.3217 54.5148 16.8902 54.9989 16.5249C55.4782 16.1598 56.031 15.8497 56.6553 15.7505C56.8085 15.7153 56.9685 15.7266 57.1253 15.7197C57.2038 15.719 57.2819 15.7371 57.3602 15.7454C57.4378 15.7585 57.5177 15.7611 57.5915 15.7902C57.9004 15.8734 58.1684 16.0087 58.4378 16.1339C58.7069 16.2584 58.9737 16.383 59.2569 16.4539C59.3985 16.4868 59.5423 16.5101 59.6886 16.514C59.8348 16.515 59.9806 16.4931 60.1246 16.4563L60.1327 16.4783C59.855 16.5991 59.5347 16.6219 59.2322 16.5704C58.9297 16.5169 58.6401 16.4154 58.3628 16.3021C58.086 16.1884 57.8116 16.0693 57.5377 16.0104C57.4706 15.9859 57.398 15.9902 57.3285 15.9793C57.2583 15.9739 57.1888 15.9582 57.1179 15.9605C56.9768 15.9711 56.8347 15.9617 56.6957 15.9979C56.1346 16.0921 55.6048 16.3618 55.1317 16.7025C54.6569 17.0436 54.2197 17.4418 53.8063 17.8642C53.6052 18.0803 53.4003 18.2951 53.2171 18.5274C53.0303 18.7569 52.8432 18.9898 52.6393 19.2087C52.4355 19.4272 52.2123 19.6342 51.9531 19.7979C51.6921 19.9612 51.407 20.0681 51.1526 20.205C50.6292 20.4496 50.3008 20.9505 50.188 21.5127C50.07 22.0725 50.1068 22.6695 50.2732 23.2335L50.2515 23.2422Z" fill="white"/>
<path d="M47.7871 67.7058C48.6075 67.9426 49.4766 68.003 50.2953 67.8148C50.7049 67.7262 51.0973 67.569 51.4605 67.3646C51.8196 67.1539 52.1725 66.9227 52.4595 66.6232C52.7556 66.3295 53.0169 65.9941 53.2996 65.6724C53.5795 65.3539 53.896 65.0353 54.2956 64.8546C54.6887 64.6712 55.1107 64.5727 55.4758 64.3615C55.6588 64.2579 55.8268 64.1306 55.9567 63.9708C56.0879 63.8111 56.1871 63.6281 56.2801 63.4389C56.3732 63.2501 56.4641 63.0544 56.5822 62.8699C56.7007 62.6839 56.8466 62.519 57.0005 62.3663C57.3102 62.0601 57.6576 61.8022 57.9979 61.5478C58.3387 61.2921 58.6738 61.0372 58.9361 60.7255C59.1952 60.409 59.399 60.0498 59.5603 59.6641C59.7279 59.2816 59.8635 58.8761 60.0563 58.4894C60.2452 58.1041 60.4804 57.7257 60.7914 57.4167C61.4116 56.7989 62.1822 56.4079 62.811 55.8342L62.8279 55.8507C62.2465 56.4803 61.4909 56.9288 60.9268 57.5426C60.6422 57.8452 60.4356 58.2045 60.264 58.585C60.0929 58.9647 59.9528 59.362 59.7864 59.7583C59.6215 60.1534 59.4151 60.5474 59.126 60.8831C58.8323 61.2186 58.4765 61.4761 58.1319 61.7251C57.7866 61.9763 57.4384 62.2171 57.1321 62.5004C56.9803 62.6428 56.8366 62.7931 56.7173 62.9592C56.5976 63.127 56.4993 63.3121 56.3958 63.4986C56.2935 63.6852 56.1812 63.8733 56.0346 64.0368C55.8865 64.2001 55.7059 64.3289 55.5169 64.4339C55.135 64.6449 54.7071 64.7353 54.332 64.9279C54.1442 65.0226 53.9691 65.1396 53.8182 65.2834C53.6683 65.4283 53.5328 65.5914 53.4017 65.7563C53.1397 66.0871 52.8981 66.4397 52.6018 66.7583C51.9931 67.3856 51.1925 67.819 50.3334 67.9917C49.4723 68.1589 48.5742 68.0483 47.7791 67.7286L47.7871 67.7058Z" fill="white"/>
<path d="M12.3223 44.9728C12.6178 44.7741 13.001 44.7463 13.3442 44.8161C13.6921 44.8805 14.0208 45.0102 14.3478 45.1241C14.5136 45.184 14.6695 45.2284 14.8447 45.2778C15.0146 45.3306 15.1769 45.3992 15.3378 45.4605C15.6586 45.5926 15.9863 45.6506 16.334 45.6544C16.6765 45.6666 17.0477 45.6616 17.3926 45.8038C17.5634 45.8695 17.7293 45.9764 17.8543 46.1132C17.9797 46.2487 18.0763 46.393 18.1822 46.5257C18.3892 46.7949 18.6315 47.028 18.91 47.2223C19.1877 47.418 19.4914 47.5881 19.7841 47.7849C20.077 47.9811 20.3538 48.2017 20.6068 48.4498C20.8588 48.6976 21.089 48.9772 21.2441 49.3073C21.3224 49.4717 21.3679 49.6616 21.371 49.8434C21.3769 50.0255 21.3569 50.1949 21.3572 50.3628C21.3574 50.6974 21.3974 51.0345 21.5266 51.3397C21.5923 51.4912 21.6792 51.6326 21.7848 51.76C21.8953 51.8828 22.0204 51.9937 22.1632 52.0821C22.449 52.2573 22.7818 52.36 23.1209 52.4091C23.4591 52.4563 23.8227 52.4723 24.1545 52.6128C24.4857 52.7486 24.7556 52.9858 25.0507 53.1505C25.3496 53.3204 25.6973 53.3596 26.0448 53.361C26.3934 53.3646 26.7509 53.4057 27.0853 53.5238C27.2511 53.5847 27.4161 53.6634 27.5505 53.7884C27.6836 53.9141 27.7666 54.0985 27.7609 54.2815C27.7523 54.6494 27.566 54.9647 27.3996 55.2649C27.2271 55.5654 27.0339 55.8544 26.8977 56.1616C26.8247 56.3143 26.7987 56.472 26.7799 56.6411C26.7633 56.8079 26.7633 56.9766 26.7709 57.1455C26.7892 57.4841 26.8485 57.8231 26.867 58.1745C26.8787 58.3498 26.8694 58.53 26.8401 58.7092C26.8147 58.7971 26.8037 58.8894 26.7614 58.9728L26.7066 59.1006L26.6321 59.2181C26.4265 59.5327 26.1031 59.731 25.7901 59.8935C25.4753 60.0561 25.1271 60.1503 24.9298 60.3857C24.724 60.619 24.6454 60.9578 24.5626 61.2843C24.4867 61.6158 24.4255 61.9539 24.3598 62.2926C24.2944 62.6321 24.2197 62.9721 24.1252 63.3099C24.0245 63.6465 23.8927 63.978 23.7116 64.2893C23.5243 64.5976 23.2677 64.8712 22.9588 65.0714C22.6501 65.2812 22.2839 65.3639 21.9286 65.4276L22.0347 65.3094C22.03 65.51 22.0666 65.7128 22.0659 65.9423C22.0607 66.1756 22.0054 66.4021 21.8686 66.6069C21.7315 66.8054 21.5452 66.9368 21.3841 67.0674C21.2225 67.198 21.0725 67.3314 21.0026 67.5011C20.9331 67.6657 20.9288 67.8786 20.9324 68.0809C20.9388 68.286 20.9604 68.4934 20.9923 68.6994C21.0573 69.1106 21.1465 69.524 21.2786 69.9166C21.4017 70.3057 21.7075 70.6003 22.0342 70.8657C22.3579 71.1336 22.7177 71.395 22.9488 71.773C23.0614 71.9584 23.1537 72.1529 23.2149 72.3623C23.2444 72.4668 23.2656 72.5756 23.2622 72.6879C23.2603 72.7983 23.2242 72.9183 23.1478 73.0029C23.0776 73.0912 22.9724 73.1554 22.8608 73.1746C22.7491 73.1953 22.638 73.1826 22.5319 73.1631C22.3193 73.1246 22.1173 73.0466 21.9053 73.041L21.905 73.0175C22.124 73.0156 22.331 73.087 22.5397 73.1166C22.7444 73.154 22.9743 73.1293 23.0911 72.959C23.2192 72.803 23.1849 72.5803 23.123 72.3895C23.0573 72.1955 22.9612 72.0066 22.8515 71.832C22.6297 71.4841 22.2794 71.2367 21.9455 70.9726C21.6128 70.714 21.2679 70.3989 21.1223 69.9714C20.9764 69.5649 20.8788 69.1507 20.8031 68.7293C20.7663 68.5185 20.7394 68.3055 20.7282 68.0886C20.7222 67.872 20.7137 67.65 20.8019 67.4191C20.8929 67.1912 21.074 67.031 21.2367 66.8928C21.4029 66.7547 21.5654 66.6283 21.6704 66.4751C21.7218 66.4018 21.7579 66.3142 21.7853 66.2207C21.8115 66.1293 21.8239 66.0363 21.8248 65.9392C21.826 65.7461 21.7879 65.5295 21.7915 65.3073L21.7929 65.2088L21.8976 65.1893C22.2232 65.1285 22.5542 65.0538 22.8248 64.8665C23.0973 64.688 23.3251 64.446 23.4962 64.1629C23.8296 63.5878 23.9864 62.9166 24.1228 62.2468C24.1911 61.9102 24.2556 61.5709 24.3365 61.2315C24.4267 60.8993 24.5033 60.5361 24.7618 60.241C24.8891 60.0944 25.0588 59.9934 25.2204 59.9189L25.6959 59.7051C25.9977 59.5557 26.2904 59.3797 26.4717 59.1124L26.5384 59.0128L26.5871 58.9035C26.6259 58.833 26.6359 58.7511 26.6607 58.6745C26.6895 58.5145 26.7023 58.3496 26.6942 58.1809C26.6835 57.8445 26.6307 57.5017 26.6183 57.1521C26.614 56.9771 26.6171 56.8011 26.6383 56.6256C26.6597 56.4534 26.6959 56.2683 26.7764 56.1093C26.927 55.7879 27.1269 55.5041 27.3037 55.2097C27.4751 54.9179 27.6586 54.6106 27.6712 54.2815C27.6776 54.118 27.6079 53.9632 27.491 53.849C27.3716 53.7357 27.2166 53.6589 27.0574 53.5995C26.734 53.4827 26.3901 53.44 26.0424 53.4339C25.8684 53.4273 25.6916 53.4219 25.5162 53.3918C25.3408 53.362 25.1699 53.3028 25.0131 53.2196C24.7011 53.0481 24.4384 52.8212 24.1197 52.6945C23.8039 52.563 23.4564 52.5522 23.1059 52.5146C22.7556 52.4728 22.4048 52.3757 22.0928 52.1951C21.9371 52.1041 21.7974 51.9872 21.6735 51.8554C21.5545 51.7191 21.4552 51.5664 21.3798 51.4029C21.231 51.074 21.1803 50.7145 21.1713 50.3633C21.168 50.1871 21.1806 50.0128 21.1744 49.8507C21.1694 49.6881 21.1318 49.5363 21.0614 49.3895C20.7696 48.7966 20.2177 48.346 19.6648 47.9564C19.3831 47.7626 19.0808 47.5897 18.7924 47.3827C18.503 47.1772 18.2429 46.9216 18.0313 46.6401C17.9233 46.5013 17.8274 46.3568 17.7181 46.2372C17.6096 46.1174 17.4773 46.03 17.3245 45.9687C17.0201 45.8404 16.6765 45.8296 16.3266 45.8113C16.1517 45.8012 15.9727 45.7873 15.7961 45.7486C15.6196 45.7114 15.4506 45.6501 15.288 45.5839C15.1255 45.5174 14.9682 45.4467 14.8066 45.3924C14.6479 45.3431 14.4689 45.29 14.3102 45.2235C13.9853 45.0955 13.6676 44.9557 13.3311 44.8798C12.9991 44.7992 12.6326 44.8105 12.3354 44.9928L12.3223 44.9728Z" fill="white"/>
<path d="M20.1583 27.5711C19.6825 27.3394 19.1466 27.2831 18.6323 27.3472C18.1144 27.4062 17.6185 27.5854 17.1384 27.7898C16.6572 27.9954 16.1925 28.2406 15.7262 28.4878C15.4961 28.6137 15.2522 28.73 15.0206 28.8477C14.7952 28.9574 14.5975 29.12 14.4209 29.3025C13.7062 30.0372 13.3116 31.0718 12.5246 31.7994C12.1448 32.1588 11.8142 32.5721 11.5908 33.0407C11.362 33.5076 11.239 34.0169 11.1129 34.5222L11.0948 34.5951L11.0227 34.5662C10.5301 34.3688 10.0836 34.0697 9.58239 34.0625C9.33512 34.0512 9.09523 34.1177 8.85296 34.2048C8.73159 34.2485 8.60784 34.295 8.47647 34.3343C8.34558 34.3766 8.19755 34.3935 8.06832 34.405C7.80225 34.4311 7.53095 34.4174 7.30129 34.4661C7.07187 34.5119 6.88387 34.6627 6.71347 34.8441C6.54521 35.0278 6.38695 35.2284 6.27414 35.4425C6.16015 35.6574 6.09923 35.8949 6.06234 36.1442C5.99903 36.6467 5.94929 37.169 5.92312 37.6764C5.90122 38.1853 5.9086 38.7028 6.0414 39.1858C6.11136 39.4236 6.21274 39.6555 6.38243 39.8281C6.54926 40.0013 6.78605 40.1188 7.03023 40.1035C7.27369 40.0924 7.51001 39.9665 7.68469 39.7854C7.86508 39.6066 7.98431 39.37 8.04333 39.121L8.06666 39.1252C8.02334 39.3818 7.91744 39.6343 7.7399 39.8352C7.56855 40.037 7.32105 40.1979 7.03856 40.2219C6.75464 40.2515 6.47405 40.1279 6.27391 39.9379C6.06876 39.7462 5.94406 39.4927 5.86338 39.2382C5.70702 38.7235 5.68703 38.1914 5.69441 37.6696C5.70417 37.1429 5.7601 36.6345 5.81959 36.1099C5.85648 35.8482 5.92312 35.5761 6.05163 35.3306C6.18014 35.0851 6.34483 34.8716 6.53212 34.6766C6.71632 34.4837 6.9574 34.2927 7.25084 34.2382C7.5369 34.1846 7.79488 34.2069 8.05 34.1844C8.1816 34.1741 8.2956 34.1637 8.41531 34.1275C8.53549 34.0939 8.6571 34.0491 8.78323 34.0082C9.03336 33.925 9.31085 33.8548 9.59024 33.8752C9.86821 33.8896 10.1357 33.9784 10.3744 34.0949C10.615 34.2102 10.8387 34.342 11.0738 34.4456L10.9837 34.4896C11.1257 33.9859 11.2785 33.4789 11.5144 33.0043C11.7493 32.5279 12.0948 32.1163 12.4663 31.7425C13.241 31.0218 13.5468 29.9742 14.2771 29.1693C14.4621 28.9724 14.6751 28.7918 14.9238 28.6661L15.628 28.305C16.0982 28.0656 16.5723 27.825 17.0666 27.6237C17.5594 27.4219 18.0806 27.2671 18.6187 27.2246C19.1539 27.1804 19.7111 27.2779 20.1687 27.5509L20.1583 27.5711Z" fill="white"/>
<path d="M28.5599 19.5053C28.6839 19.5967 28.8284 19.6594 28.9776 19.6622C29.1266 19.6655 29.272 19.6129 29.4 19.5344C29.6542 19.3714 29.8662 19.1454 30.0604 18.9086C30.4467 18.4305 30.7765 17.9061 31.138 17.3996C31.3179 17.1454 31.5002 16.8917 31.7061 16.6511C31.9127 16.4134 32.1356 16.1737 32.451 16.0279C32.6221 15.9595 32.768 15.9397 32.9241 15.9036L33.3839 15.8119C33.6878 15.756 33.9727 15.6689 34.2166 15.4892C34.4662 15.3167 34.6721 15.0907 34.8953 14.8687C35.1207 14.6535 35.3844 14.4407 35.71 14.3833C36.0327 14.319 36.3475 14.397 36.655 14.4075C36.9639 14.4216 37.2731 14.3782 37.5639 14.2793C38.1479 14.0812 38.6327 13.6574 38.9777 13.1617C39.3195 12.6625 39.5392 12.0721 39.542 11.4775L39.5425 11.3661L39.6579 11.3788C39.8645 11.4016 40.077 11.3927 40.2403 11.3034C40.4069 11.2188 40.5061 11.0447 40.5599 10.8514C40.6634 10.4565 40.6279 10.0164 40.6177 9.5804C40.612 9.36027 40.6056 9.13779 40.6437 8.90333C40.6622 8.78751 40.7017 8.6597 40.77 8.55211C40.8378 8.4438 40.9276 8.35664 41.0061 8.28217C41.0858 8.20652 41.1529 8.13792 41.1977 8.05922C41.2205 8.02022 41.2374 7.97864 41.2505 7.93447C41.2607 7.90064 41.2629 7.85624 41.2646 7.80221C41.2684 7.59335 41.2558 7.3744 41.2405 7.15943L41.2127 6.83781C41.2067 6.78848 41.2008 6.72575 41.1915 6.69615C41.1734 6.65151 41.1625 6.60359 41.1372 6.562C41.053 6.38698 40.9014 6.24602 40.725 6.13819C40.3681 5.92088 39.9321 5.82738 39.5039 5.75666C38.6372 5.62581 37.7476 5.64272 36.8621 5.61946V5.59597C37.7455 5.55791 38.6339 5.49307 39.5263 5.59362C39.9694 5.64671 40.4223 5.73293 40.8319 5.96293C41.0335 6.07875 41.2239 6.24179 41.3379 6.46098C41.3702 6.51337 41.3876 6.57258 41.4109 6.62896C41.4335 6.70414 41.4354 6.75159 41.4452 6.81009C41.4604 6.92121 41.4704 7.03093 41.4792 7.14111C41.4959 7.36195 41.5104 7.57973 41.5078 7.80808C41.5235 8.07285 41.3419 8.31154 41.1789 8.45602C41.014 8.60614 40.9169 8.74311 40.8909 8.94374C40.8597 9.14178 40.865 9.35886 40.8662 9.575C40.8678 10.0087 40.9042 10.4572 40.7798 10.9129C40.7165 11.1347 40.5808 11.3764 40.344 11.4932C40.1132 11.6135 39.8581 11.6093 39.6305 11.5787L39.7464 11.4801C39.7276 12.1254 39.4737 12.7388 39.0944 13.2434C38.7155 13.7483 38.1964 14.159 37.5908 14.358C37.2892 14.4566 36.9677 14.4973 36.6519 14.4787C36.3373 14.4681 36.0236 14.4017 35.7278 14.4667C35.4284 14.5219 35.1838 14.7273 34.9772 14.9467C34.7697 15.1708 34.5655 15.4177 34.3082 15.6113C34.0562 15.8157 33.7318 15.9301 33.4255 15.998L32.9672 16.0974C32.8196 16.1322 32.654 16.1634 32.5359 16.2144C32.2822 16.3363 32.0662 16.5602 31.8634 16.7839C31.6616 17.012 31.4769 17.2594 31.2946 17.5086C30.9319 18.0088 30.5806 18.524 30.1644 18.9948C29.9566 19.2286 29.7287 19.456 29.4445 19.6108C29.3027 19.686 29.1385 19.7348 28.9745 19.7207C28.8096 19.7085 28.6627 19.6249 28.5447 19.5224L28.5599 19.5053Z" fill="white"/>
<path d="M68.0556 40.2937C68.1067 40.5585 68.2036 40.8169 68.3837 41.0093C68.5615 41.2027 68.7988 41.33 69.0513 41.4124C69.5623 41.5776 70.107 41.6058 70.6634 41.7277C70.8007 41.7611 70.9604 41.8233 71.0711 41.9401C71.1775 42.051 71.2512 42.1539 71.3445 42.249C71.529 42.4443 71.7263 42.5998 71.975 42.6978C72.4685 42.8939 73.0304 42.912 73.5773 42.9188L73.6209 42.9193L73.618 42.9613C73.5875 43.4101 73.5878 43.8661 73.6908 44.3C73.7991 44.7339 74.0366 45.1194 74.2948 45.488C74.425 45.675 74.5592 45.8489 74.6892 46.0465C74.8141 46.2429 74.9295 46.4482 75.0097 46.6686C75.1773 47.1065 75.2444 47.5822 75.2094 48.0495C75.1747 48.5165 75.0447 48.9746 74.8474 49.3938C74.6566 49.815 74.4141 50.2115 74.1302 50.5762C73.5737 51.3054 72.8177 51.9282 71.9257 52.1812L71.9183 52.1589C72.772 51.8215 73.444 51.1766 73.9629 50.4549C74.2218 50.091 74.441 49.7003 74.6202 49.2941C74.7987 48.8896 74.9236 48.4646 74.9626 48.0297C75.0048 47.5956 74.9526 47.1542 74.8056 46.7421C74.7339 46.5354 74.6363 46.3373 74.5245 46.1475C74.4124 45.9609 74.2753 45.7697 74.159 45.5754C73.9214 45.1878 73.6944 44.7741 73.6049 44.3197C73.504 43.8686 73.5269 43.4096 73.5366 42.9573L73.5773 42.9999C73.0307 42.9949 72.4654 43.0332 71.9171 42.8512C71.7824 42.8032 71.6482 42.7464 71.5263 42.6646C71.4024 42.5826 71.2993 42.4863 71.1994 42.3869C71.0994 42.2885 71.009 42.1717 70.924 42.0874C70.8412 42.0068 70.7362 41.9636 70.6096 41.9265C70.097 41.7947 69.5256 41.7677 68.9977 41.5576C68.736 41.4543 68.4799 41.302 68.3026 41.0758C68.1281 40.8477 68.0475 40.5683 68.0327 40.2963L68.0556 40.2937Z" fill="white"/>
</svg>
